<?xml version="1.0" encoding="UTF-8" standalone="no"?>
<!-- Created with Inkscape (http://www.inkscape.org/) -->

<svg
   xmlns:dc="http://purl.org/dc/elements/1.1/"
   xmlns:cc="http://creativecommons.org/ns#"
   xmlns:rdf="http://www.w3.org/1999/02/22-rdf-syntax-ns#"
   xmlns:svg="http://www.w3.org/2000/svg"
   xmlns="http://www.w3.org/2000/svg"
   xmlns:sodipodi="http://sodipodi.sourceforge.net/DTD/sodipodi-0.dtd"
   xmlns:inkscape="http://www.inkscape.org/namespaces/inkscape"
   width="274.31393mm"
   height="67.0802mm"
   viewBox="0 0 274.31393 67.0802"
   version="1.1"
   id="svg3401"
   inkscape:version="0.92.5 (2060ec1f9f, 2020-04-08)"
   sodipodi:docname="logo_text.svg">
  <defs
     id="defs3395" />
  <sodipodi:namedview
     id="base"
     pagecolor="#ffffff"
     bordercolor="#666666"
     borderopacity="1.0"
     inkscape:pageopacity="0.0"
     inkscape:pageshadow="2"
     inkscape:zoom="0.35"
     inkscape:cx="771.2458"
     inkscape:cy="46.765804"
     inkscape:document-units="mm"
     inkscape:current-layer="layer1"
     showgrid="false"
     fit-margin-top="0"
     fit-margin-left="0"
     fit-margin-right="0"
     fit-margin-bottom="0"
     inkscape:window-width="1920"
     inkscape:window-height="1024"
     inkscape:window-x="0"
     inkscape:window-y="0"
     inkscape:window-maximized="1" />
  <metadata
     id="metadata3398">
    <rdf:RDF>
      <cc:Work
         rdf:about="">
        <dc:format>image/svg+xml</dc:format>
        <dc:type
           rdf:resource="http://purl.org/dc/dcmitype/StillImage" />
        <dc:title></dc:title>
      </cc:Work>
    </rdf:RDF>
  </metadata>
  <g
     inkscape:label="Layer 1"
     inkscape:groupmode="layer"
     id="layer1"
     transform="translate(10.157,-130.4123)">
    <g
       transform="translate(1025.0986,1564.4114)"
       id="g1587">
      <path
         sodipodi:nodetypes="ccccccc"
         inkscape:connector-curvature="0"
         id="path7497-9-0"
         d="m -1035.2556,-1433.9991 13.5406,33.5401 -13.5406,33.5401 h 274.31393 l -13.54062,-33.5401 13.54062,-33.5401 z"
         style="fill:#5e3843;fill-opacity:1;stroke:none;stroke-width:4.44857168;stroke-linecap:butt;stroke-linejoin:miter;stroke-miterlimit:4;stroke-dasharray:none;stroke-opacity:1" />
      <g
         style="fill:#fef0d1;fill-opacity:1"
         id="g7377-8-0-6"
         transform="matrix(1.1548567,0,0,1.1548567,-1782.2108,-1496.708)">
        <path
           style="color:#000000;font-style:normal;font-variant:normal;font-weight:normal;font-stretch:normal;font-size:medium;line-height:normal;font-family:sans-serif;font-variant-ligatures:normal;font-variant-position:normal;font-variant-caps:normal;font-variant-numeric:normal;font-variant-alternates:normal;font-feature-settings:normal;text-indent:0;text-align:start;text-decoration:none;text-decoration-line:none;text-decoration-style:solid;text-decoration-color:#000000;letter-spacing:normal;word-spacing:normal;text-transform:none;writing-mode:lr-tb;direction:ltr;text-orientation:mixed;dominant-baseline:auto;baseline-shift:baseline;text-anchor:start;white-space:normal;shape-padding:0;clip-rule:nonzero;display:inline;overflow:visible;visibility:visible;opacity:1;isolation:auto;mix-blend-mode:normal;color-interpolation:sRGB;color-interpolation-filters:linearRGB;solid-color:#000000;solid-opacity:1;vector-effect:none;fill:#fef0d1;fill-opacity:1;fill-rule:nonzero;stroke:none;stroke-width:5;stroke-linecap:round;stroke-linejoin:miter;stroke-miterlimit:4;stroke-dasharray:none;stroke-dashoffset:0;stroke-opacity:1;color-rendering:auto;image-rendering:auto;shape-rendering:auto;text-rendering:auto;enable-background:accumulate"
           d="m 665.21652,66.543681 c -1.3913,-0.01497 -2.52718,1.107568 -2.52718,2.497492 0,1.389923 1.13588,2.512461 2.52718,2.497492 1.28329,0 2.56658,0 3.84987,0 0,8.682203 0,17.364407 0,26.04661 -0.025,1.396664 1.1015,2.542315 2.49985,2.542315 1.39835,0 2.52486,-1.145651 2.49985,-2.542315 0,-8.682203 0,-17.364407 0,-26.04661 1.2833,0 2.5666,0 3.8499,0 1.39129,0.01497 2.52717,-1.107569 2.52717,-2.497492 0,-1.389924 -1.13588,-2.512461 -2.52717,-2.497492 0,0 -12.69947,0 -12.69947,0 z"
           id="path817-5-7-2-9-0"
           inkscape:connector-curvature="0" />
        <path
           style="color:#000000;font-style:normal;font-variant:normal;font-weight:normal;font-stretch:normal;font-size:medium;line-height:normal;font-family:sans-serif;font-variant-ligatures:normal;font-variant-position:normal;font-variant-caps:normal;font-variant-numeric:normal;font-variant-alternates:normal;font-feature-settings:normal;text-indent:0;text-align:start;text-decoration:none;text-decoration-line:none;text-decoration-style:solid;text-decoration-color:#000000;letter-spacing:normal;word-spacing:normal;text-transform:none;writing-mode:lr-tb;direction:ltr;text-orientation:mixed;dominant-baseline:auto;baseline-shift:baseline;text-anchor:start;white-space:normal;shape-padding:0;clip-rule:nonzero;display:inline;overflow:visible;visibility:visible;opacity:1;isolation:auto;mix-blend-mode:normal;color-interpolation:sRGB;color-interpolation-filters:linearRGB;solid-color:#000000;solid-opacity:1;vector-effect:none;fill:#fef0d1;fill-opacity:1;fill-rule:nonzero;stroke:none;stroke-width:5;stroke-linecap:round;stroke-linejoin:miter;stroke-miterlimit:4;stroke-dasharray:none;stroke-dashoffset:0;stroke-opacity:1;color-rendering:auto;image-rendering:auto;shape-rendering:auto;text-rendering:auto;enable-background:accumulate"
           d="m 687.40429,66.508577 c -1.37999,0.02046 -2.48237,1.154037 -2.4629,2.532591 0,9.514702 0,19.029405 0,28.544107 -0.025,1.396664 1.1015,2.542315 2.49985,2.542315 1.39835,0 2.52486,-1.145651 2.49985,-2.542315 0,-4.453637 0,-8.907275 0,-13.360912 1.50861,0 3.01722,0 4.52583,0 0,4.453637 0,8.907275 0,13.360912 -0.025,1.396664 1.1015,2.542315 2.49985,2.542315 1.39835,0 2.52486,-1.145651 2.49985,-2.542315 0,-9.514702 0,-19.029405 0,-28.544107 0.0199,-1.408285 -1.12914,-2.554481 -2.53886,-2.532591 -1.37918,0.02158 -2.48032,1.154829 -2.46084,2.532591 0,3.39624 0,6.79248 0,10.18872 -1.50861,0 -3.01722,0 -4.52583,0 0,-3.39624 0,-6.79248 0,-10.18872 0.0199,-1.407464 -1.12788,-2.553308 -2.5368,-2.532591 z"
           id="path821-4-7-6-9-8"
           inkscape:connector-curvature="0" />
        <path
           style="color:#000000;font-style:normal;font-variant:normal;font-weight:normal;font-stretch:normal;font-size:medium;line-height:normal;font-family:sans-serif;font-variant-ligatures:normal;font-variant-position:normal;font-variant-caps:normal;font-variant-numeric:normal;font-variant-alternates:normal;font-feature-settings:normal;text-indent:0;text-align:start;text-decoration:none;text-decoration-line:none;text-decoration-style:solid;text-decoration-color:#000000;letter-spacing:normal;word-spacing:normal;text-transform:none;writing-mode:lr-tb;direction:ltr;text-orientation:mixed;dominant-baseline:auto;baseline-shift:baseline;text-anchor:start;white-space:normal;shape-padding:0;clip-rule:nonzero;display:inline;overflow:visible;visibility:visible;opacity:1;isolation:auto;mix-blend-mode:normal;color-interpolation:sRGB;color-interpolation-filters:linearRGB;solid-color:#000000;solid-opacity:1;vector-effect:none;fill:#fef0d1;fill-opacity:1;fill-rule:nonzero;stroke:none;stroke-width:5;stroke-linecap:round;stroke-linejoin:round;stroke-miterlimit:4;stroke-dasharray:none;stroke-dashoffset:0;stroke-opacity:1;color-rendering:auto;image-rendering:auto;shape-rendering:auto;text-rendering:auto;enable-background:accumulate"
           d="m 706.48996,66.543681 c -1.38054,3.58e-4 -2.49952,1.118392 -2.4996,2.497487 0,9.514702 0,19.029405 0,28.544107 8e-5,1.379095 1.11906,2.497125 2.4996,2.497485 3.17517,0 6.35035,0 9.52553,0 1.39823,0.0252 2.54525,-1.100234 2.54525,-2.49723 0,-1.396996 -1.14702,-2.522376 -2.54525,-2.497233 -2.34181,0 -4.68362,0 -7.02543,0 0,-2.563741 0,-5.127482 0,-7.691223 1.28382,0 2.56764,0 3.85146,0 1.39129,0.01497 2.52717,-1.107569 2.52717,-2.497492 0,-1.389924 -1.13588,-2.512461 -2.52717,-2.497492 -1.28382,0 -2.56764,0 -3.85146,0 0,-3.621142 0,-7.242284 0,-10.863425 2.34181,0 4.68362,0 7.02543,0 1.39129,0.01497 2.52717,-1.107569 2.52717,-2.497492 0,-1.389924 -1.13588,-2.512461 -2.52717,-2.497492 -10e-6,0 -9.52553,0 -9.52553,0 z"
           id="path827-2-4-0-4-5"
           inkscape:connector-curvature="0" />
        <path
           style="color:#000000;font-style:normal;font-variant:normal;font-weight:normal;font-stretch:normal;font-size:medium;line-height:normal;font-family:sans-serif;font-variant-ligatures:normal;font-variant-position:normal;font-variant-caps:normal;font-variant-numeric:normal;font-variant-alternates:normal;font-feature-settings:normal;text-indent:0;text-align:start;text-decoration:none;text-decoration-line:none;text-decoration-style:solid;text-decoration-color:#000000;letter-spacing:normal;word-spacing:normal;text-transform:none;writing-mode:lr-tb;direction:ltr;text-orientation:mixed;dominant-baseline:auto;baseline-shift:baseline;text-anchor:start;white-space:normal;shape-padding:0;clip-rule:nonzero;display:inline;overflow:visible;visibility:visible;opacity:1;isolation:auto;mix-blend-mode:normal;color-interpolation:sRGB;color-interpolation-filters:linearRGB;solid-color:#000000;solid-opacity:1;vector-effect:none;fill:#fef0d1;fill-opacity:1;fill-rule:nonzero;stroke:none;stroke-width:5;stroke-linecap:round;stroke-linejoin:round;stroke-miterlimit:4;stroke-dasharray:none;stroke-dashoffset:0;stroke-opacity:1;color-rendering:auto;image-rendering:auto;shape-rendering:auto;text-rendering:auto;enable-background:accumulate"
           d="m 725.54094,66.543701 c -1.38066,1.37e-4 -2.49987,1.118175 -2.5,2.497387 0,9.514785 0,19.029571 0,28.544357 -0.0197,1.393082 1.10532,2.532955 2.5,2.532955 1.39468,0 2.51972,-1.139873 2.5,-2.532955 0,-2.817366 0,-5.634732 0,-8.452098 -1.31761,-2.632989 6.10667,12.203053 4.78907,9.570068 0.61698,1.234849 2.11957,1.735775 3.35528,1.118567 1.2357,-0.617208 1.73609,-2.118581 1.11737,-3.35256 -0.63827,-1.2752 -3.90275,-7.797338 -4.54101,-9.072538 0.76823,0 1.53646,0 2.30469,0 1.38065,-1.43e-4 2.49985,-1.118179 2.49999,-2.497387 0,-5.286137 0,-10.572273 0,-15.858409 -1.4e-4,-1.379208 -1.11934,-2.497244 -2.49999,-2.497387 -3.17514,0 -6.35027,0 -9.5254,0 z m 2.5,4.994774 c 1.50846,0 3.01692,0 4.52539,0 0,3.621212 0,7.242423 0,10.863635 -1.27735,0 -2.55469,0 -3.83203,0 -0.23112,0 -0.46224,0 -0.69336,0 0,1.05869 0,-11.922326 0,-10.863635 z"
           id="path831-1-0-6-5-3"
           inkscape:connector-curvature="0" />
        <path
           style="color:#000000;font-style:normal;font-variant:normal;font-weight:normal;font-stretch:normal;font-size:medium;line-height:normal;font-family:sans-serif;font-variant-ligatures:normal;font-variant-position:normal;font-variant-caps:normal;font-variant-numeric:normal;font-variant-alternates:normal;font-feature-settings:normal;text-indent:0;text-align:start;text-decoration:none;text-decoration-line:none;text-decoration-style:solid;text-decoration-color:#000000;letter-spacing:normal;word-spacing:normal;text-transform:none;writing-mode:lr-tb;direction:ltr;text-orientation:mixed;dominant-baseline:auto;baseline-shift:baseline;text-anchor:start;white-space:normal;shape-padding:0;clip-rule:nonzero;display:inline;overflow:visible;visibility:visible;opacity:1;isolation:auto;mix-blend-mode:normal;color-interpolation:sRGB;color-interpolation-filters:linearRGB;solid-color:#000000;solid-opacity:1;vector-effect:none;fill:#fef0d1;fill-opacity:1;fill-rule:nonzero;stroke:none;stroke-width:5;stroke-linecap:round;stroke-linejoin:round;stroke-miterlimit:4;stroke-dasharray:none;stroke-dashoffset:0;stroke-opacity:1;color-rendering:auto;image-rendering:auto;shape-rendering:auto;text-rendering:auto;enable-background:accumulate"
           d="m 744.56633,66.543701 c -1.37073,0.01404 -2.47455,1.128018 -2.47461,2.497387 0,5.305105 0,23.239251 0,28.544357 -0.0197,1.393082 1.10532,2.532955 2.5,2.532955 1.39468,0 2.51972,-1.139873 2.5,-2.532955 0,-5.191183 0,-10.382365 0,-15.573547 0.082,0.204782 1.44535,3.609577 1.52735,3.814359 0.37978,0.948073 1.29905,1.569704 2.32129,1.569704 1.02223,0 1.9415,-0.621631 2.32129,-1.569704 -0.11742,0.293157 1.6467,-4.111422 1.52929,-3.818265 0,5.192484 0,10.384968 0,15.577453 -0.0197,1.393082 1.10532,2.532955 2.5,2.532955 1.39468,0 2.51972,-1.139873 2.5,-2.532955 0,-9.514786 0,-19.029572 0,-28.544357 -10e-4,-1.19617 -0.85101,-2.223633 -2.02676,-2.450163 -1.17575,-0.226529 -2.34722,0.411481 -2.79355,1.521444 -0.16705,0.417135 -3.86225,9.64461 -4.02929,10.061744 0.28079,0.701174 -4.31009,-10.762917 -4.0293,-10.061744 -0.38339,-0.955978 -1.31485,-1.578877 -2.34571,-1.568668 z"
           id="path833-9-6-6-1-9"
           inkscape:connector-curvature="0" />
        <path
           style="color:#000000;font-style:normal;font-variant:normal;font-weight:normal;font-stretch:normal;font-size:medium;line-height:normal;font-family:sans-serif;font-variant-ligatures:normal;font-variant-position:normal;font-variant-caps:normal;font-variant-numeric:normal;font-variant-alternates:normal;font-feature-settings:normal;text-indent:0;text-align:start;text-decoration:none;text-decoration-line:none;text-decoration-style:solid;text-decoration-color:#000000;letter-spacing:normal;word-spacing:normal;text-transform:none;writing-mode:lr-tb;direction:ltr;text-orientation:mixed;dominant-baseline:auto;baseline-shift:baseline;text-anchor:start;white-space:normal;shape-padding:0;clip-rule:nonzero;display:inline;overflow:visible;visibility:visible;opacity:1;isolation:auto;mix-blend-mode:normal;color-interpolation:sRGB;color-interpolation-filters:linearRGB;solid-color:#000000;solid-opacity:1;vector-effect:none;fill:#fef0d1;fill-opacity:1;fill-rule:nonzero;stroke:none;stroke-width:5;stroke-linecap:round;stroke-linejoin:miter;stroke-miterlimit:4;stroke-dasharray:none;stroke-dashoffset:0;stroke-opacity:1;color-rendering:auto;image-rendering:auto;shape-rendering:auto;text-rendering:auto;enable-background:accumulate"
           d="m 766.81652,66.543681 c -1.3913,-0.01497 -2.52718,1.107568 -2.52718,2.497492 0,1.389923 1.13588,2.512461 2.52718,2.497492 0.96548,0 1.93096,0 2.89644,0 0,0.224385 0,0.44877 0,0.673156 0,7.401107 0,14.802214 0,22.203321 0,0.224385 0,0.44877 0,0.673155 -0.96548,0 -1.93096,0 -2.89644,0 -1.39824,-0.02514 -2.54525,1.100237 -2.54525,2.497233 0,1.396996 1.14702,2.52238 2.54525,2.49723 3.59822,0 7.19645,0 10.79468,0 1.39823,0.0252 2.54525,-1.100234 2.54525,-2.49723 0,-1.396996 -1.14702,-2.522376 -2.54525,-2.497233 -0.96618,0 -1.93236,0 -2.89854,0 0,-0.224385 0,-0.44877 0,-0.673155 0,-7.401107 0,-14.802214 0,-22.203321 0,-0.224386 0,-0.448771 0,-0.673156 0.96618,0 1.93236,0 2.89854,0 1.39129,0.01497 2.52717,-1.107569 2.52717,-2.497492 0,-1.389924 -1.13588,-2.512461 -2.52717,-2.497492 -1e-5,0 -10.79468,0 -10.79468,0 z"
           id="path1308-62-4-4-0-4"
           inkscape:connector-curvature="0" />
        <path
           style="color:#000000;font-style:normal;font-variant:normal;font-weight:normal;font-stretch:normal;font-size:medium;line-height:normal;font-family:sans-serif;font-variant-ligatures:normal;font-variant-position:normal;font-variant-caps:normal;font-variant-numeric:normal;font-variant-alternates:normal;font-feature-settings:normal;text-indent:0;text-align:start;text-decoration:none;text-decoration-line:none;text-decoration-style:solid;text-decoration-color:#000000;letter-spacing:normal;word-spacing:normal;text-transform:none;writing-mode:lr-tb;direction:ltr;text-orientation:mixed;dominant-baseline:auto;baseline-shift:baseline;text-anchor:start;white-space:normal;shape-padding:0;clip-rule:nonzero;display:inline;overflow:visible;visibility:visible;opacity:1;isolation:auto;mix-blend-mode:normal;color-interpolation:sRGB;color-interpolation-filters:linearRGB;solid-color:#000000;solid-opacity:1;vector-effect:none;fill:#fef0d1;fill-opacity:1;fill-rule:nonzero;stroke:none;stroke-width:5;stroke-linecap:square;stroke-linejoin:round;stroke-miterlimit:4;stroke-dasharray:none;stroke-dashoffset:0;stroke-opacity:1;color-rendering:auto;image-rendering:auto;shape-rendering:auto;text-rendering:auto;enable-background:accumulate"
           d="m 792.38274,66.543701 c -4.53078,0 -7.74609,4.218496 -7.74609,8.840361 0,5.286136 0,10.572272 0,15.858409 0,4.621864 3.21531,8.840359 7.74609,8.840359 0.31185,0 0.6237,0 0.93555,0 4.53077,0 7.74804,-4.218495 7.74804,-8.840359 0,-5.286137 0,-10.572273 0,-15.858409 0,-4.621865 -3.21727,-8.840361 -7.74804,-8.840361 -0.31185,0 -0.6237,0 -0.93555,0 z m 0,4.994774 c 0.31185,0 0.6237,0 0.93555,0 1.28346,0 2.74804,1.439005 2.74804,3.845587 0,5.286136 0,10.572272 0,15.858409 0,2.406582 -1.46458,3.845587 -2.74804,3.845587 -0.31185,0 -0.6237,0 -0.93555,0 -1.28346,0 -2.74609,-1.439005 -2.74609,-3.845587 0,-5.286137 0,-10.572273 0,-15.858409 0,-2.406582 1.46263,-3.845587 2.74609,-3.845587 z"
           id="rect1323-7-7-6-3-1"
           inkscape:connector-curvature="0" />
        <path
           style="color:#000000;font-style:normal;font-variant:normal;font-weight:normal;font-stretch:normal;font-size:medium;line-height:normal;font-family:sans-serif;font-variant-ligatures:normal;font-variant-position:normal;font-variant-caps:normal;font-variant-numeric:normal;font-variant-alternates:normal;font-feature-settings:normal;text-indent:0;text-align:start;text-decoration:none;text-decoration-line:none;text-decoration-style:solid;text-decoration-color:#000000;letter-spacing:normal;word-spacing:normal;text-transform:none;writing-mode:lr-tb;direction:ltr;text-orientation:mixed;dominant-baseline:auto;baseline-shift:baseline;text-anchor:start;white-space:normal;shape-padding:0;clip-rule:nonzero;display:inline;overflow:visible;visibility:visible;opacity:1;isolation:auto;mix-blend-mode:normal;color-interpolation:sRGB;color-interpolation-filters:linearRGB;solid-color:#000000;solid-opacity:1;vector-effect:none;fill:#fef0d1;fill-opacity:1;fill-rule:nonzero;stroke:none;stroke-width:5;stroke-linecap:round;stroke-linejoin:round;stroke-miterlimit:4;stroke-dasharray:none;stroke-dashoffset:0;stroke-opacity:1;color-rendering:auto;image-rendering:auto;shape-rendering:auto;text-rendering:auto;enable-background:accumulate"
           d="m 820.75383,66.50461 c -1.37995,0.02047 -2.48232,1.154128 -2.46289,2.532809 0,5.592464 0,11.184929 0,16.777393 1.75365,3.941529 -9.66967,-21.7336 -7.91601,-17.792071 -0.48085,-1.075786 -1.64871,-1.669635 -2.80227,-1.424928 -1.15355,0.244707 -1.97913,1.261431 -1.98094,2.439606 0,9.515905 0,19.03181 0,28.547715 -0.0197,1.393246 1.10532,2.533256 2.5,2.533256 1.39468,0 2.51972,-1.14001 2.5,-2.533256 0,-5.591815 0,-11.18363 0,-16.775445 2.40202,5.399524 5.51205,12.390599 7.91407,17.790123 0.47949,1.078258 1.64875,1.674278 2.804,1.429318 1.15524,-0.24497 1.98138,-1.264113 1.98115,-2.443996 0,-9.515905 0,-19.03181 0,-28.547715 0.0198,-1.407722 -1.1281,-2.553704 -2.53711,-2.532809 z"
           id="path833-8-3-4-2-7-5"
           inkscape:connector-curvature="0" />
        <path
           style="color:#000000;font-style:normal;font-variant:normal;font-weight:normal;font-stretch:normal;font-size:medium;line-height:normal;font-family:sans-serif;font-variant-ligatures:normal;font-variant-position:normal;font-variant-caps:normal;font-variant-numeric:normal;font-variant-alternates:normal;font-feature-settings:normal;text-indent:0;text-align:start;text-decoration:none;text-decoration-line:none;text-decoration-style:solid;text-decoration-color:#000000;letter-spacing:normal;word-spacing:normal;text-transform:none;writing-mode:lr-tb;direction:ltr;text-orientation:mixed;dominant-baseline:auto;baseline-shift:baseline;text-anchor:start;white-space:normal;shape-padding:0;clip-rule:nonzero;display:inline;overflow:visible;visibility:visible;opacity:1;isolation:auto;mix-blend-mode:normal;color-interpolation:sRGB;color-interpolation-filters:linearRGB;solid-color:#000000;solid-opacity:1;vector-effect:none;fill:#fef0d1;fill-opacity:1;fill-rule:nonzero;stroke:none;stroke-width:5;stroke-linecap:round;stroke-linejoin:miter;stroke-miterlimit:4;stroke-dasharray:none;stroke-dashoffset:0;stroke-opacity:1;color-rendering:auto;image-rendering:auto;shape-rendering:auto;text-rendering:auto;enable-background:accumulate"
           d="m 830.31652,66.50844 c -1.3913,-0.01498 -2.52718,1.108728 -2.52718,2.500105 0,1.391378 1.13588,2.51509 2.52718,2.500105 0.96548,0 1.93096,0 2.89644,0 0,0.22462 0,0.44924 0,0.67386 0,7.40885 0,14.8177 0,22.22655 0,0.22462 0,0.44924 0,0.67386 -0.96548,0 -1.93096,0 -2.89644,0 -1.39823,-0.02517 -2.54525,1.101388 -2.54525,2.499845 0,1.398458 1.14702,2.525015 2.54525,2.499845 3.59822,0 7.19645,0 10.79468,0 1.39823,0.0252 2.54525,-1.101387 2.54525,-2.499845 0,-1.398457 -1.14702,-2.525015 -2.54525,-2.499845 -0.96618,0 -1.93236,0 -2.89854,0 0,-0.22462 0,-0.44924 0,-0.67386 0,-7.40885 0,-14.8177 0,-22.22655 0,-0.22462 0,-0.44924 0,-0.67386 0.96618,0 1.93236,0 2.89854,0 1.39129,0.01498 2.52717,-1.108727 2.52717,-2.500105 0,-1.391377 -1.13588,-2.515089 -2.52717,-2.500105 0,0 -10.79468,0 -10.79468,0 z"
           id="path1308-3-1-8-8-8-4"
           inkscape:connector-curvature="0" />
        <path
           style="color:#000000;font-style:normal;font-variant:normal;font-weight:normal;font-stretch:normal;font-size:medium;line-height:normal;font-family:sans-serif;font-variant-ligatures:normal;font-variant-position:normal;font-variant-caps:normal;font-variant-numeric:normal;font-variant-alternates:normal;font-feature-settings:normal;text-indent:0;text-align:start;text-decoration:none;text-decoration-line:none;text-decoration-style:solid;text-decoration-color:#000000;letter-spacing:normal;word-spacing:normal;text-transform:none;writing-mode:lr-tb;direction:ltr;text-orientation:mixed;dominant-baseline:auto;baseline-shift:baseline;text-anchor:start;white-space:normal;shape-padding:0;clip-rule:nonzero;display:inline;overflow:visible;visibility:visible;opacity:1;isolation:auto;mix-blend-mode:normal;color-interpolation:sRGB;color-interpolation-filters:linearRGB;solid-color:#000000;solid-opacity:1;vector-effect:none;fill:#fef0d1;fill-opacity:1;fill-rule:nonzero;stroke:none;stroke-width:5;stroke-linecap:round;stroke-linejoin:round;stroke-miterlimit:4;stroke-dasharray:none;stroke-dashoffset:0;stroke-opacity:1;color-rendering:auto;image-rendering:auto;shape-rendering:auto;text-rendering:auto;enable-background:accumulate"
           d="m 853.16714,66.53984 a 2.50025,2.50025 0 0 0 -2.4629,2.53524 v 28.57397 a 2.50025,2.50025 0 1 0 5.0002,0 v -8.58914 l 8.25944,10.16527 a 2.50025,2.50025 0 1 0 3.88091,-3.15226 l -9.34619,-11.50266 9.48108,-14.10095 a 2.50025,2.50025 0 0 0 -2.11307,-3.92379 2.50025,2.50025 0 0 0 -2.03708,1.13482 L 855.70444,79.7628 V 69.07508 a 2.50025,2.50025 0 0 0 -2.5373,-2.53524 z"
           id="path1366-0-5-9-8-1"
           inkscape:connector-curvature="0" />
      </g>
      <path
         transform="scale(0.26458333)"
         inkscape:connector-curvature="0"
         id="rect1250"
         d="m -3906.9805,-5405.4805 2.2891,5.67 h 1020.6055 l 2.289,-5.67 z"
         style="fill:#fef0d1;fill-opacity:1;stroke:none;stroke-width:17.66526604;stroke-linecap:round;stroke-miterlimit:4;stroke-dasharray:none;stroke-opacity:1" />
      <path
         inkscape:connector-curvature="0"
         id="rect1250-1"
         transform="scale(0.26458333)"
         d="m -3905.9785,-5183.1504 -2.2891,5.6699 h 1027.7578 l -2.289,-5.6699 z"
         style="fill:#fef0d1;fill-opacity:1;stroke:none;stroke-width:17.66526604;stroke-linecap:round;stroke-miterlimit:4;stroke-dasharray:none;stroke-opacity:1" />
    </g>
  </g>
</svg>
