<?xml version="1.0" encoding="UTF-8" standalone="no"?>
<!-- Created with Inkscape (http://www.inkscape.org/) -->

<svg
   xmlns:dc="http://purl.org/dc/elements/1.1/"
   xmlns:cc="http://creativecommons.org/ns#"
   xmlns:rdf="http://www.w3.org/1999/02/22-rdf-syntax-ns#"
   xmlns:svg="http://www.w3.org/2000/svg"
   xmlns="http://www.w3.org/2000/svg"
   xmlns:sodipodi="http://sodipodi.sourceforge.net/DTD/sodipodi-0.dtd"
   xmlns:inkscape="http://www.inkscape.org/namespaces/inkscape"
   width="317.49997mm"
   height="273.49509mm"
   viewBox="0 0 317.49997 273.49509"
   version="1.1"
   id="svg1993"
   inkscape:version="0.92.5 (2060ec1f9f, 2020-04-08)"
   sodipodi:docname="logo_final.svg">
  <defs
     id="defs1987">
    <inkscape:path-effect
       effect="perspective-envelope"
       up_left_point="-1050.151,-1405.7909"
       up_right_point="-732.65102,-1481.9909"
       down_left_point="-1050.151,-1310.5409"
       down_right_point="-732.65102,-1393.0909"
       id="path-effect1911-9"
       is_visible="true"
       deform_type="perspective"
       horizontal_mirror="false"
       vertical_mirror="false"
       overflow_perspective="false" />
  </defs>
  <sodipodi:namedview
     id="base"
     pagecolor="#ffffff"
     bordercolor="#666666"
     borderopacity="1.0"
     inkscape:pageopacity="0.0"
     inkscape:pageshadow="2"
     inkscape:zoom="0.24748737"
     inkscape:cx="221.09787"
     inkscape:cy="1047.9647"
     inkscape:document-units="mm"
     inkscape:current-layer="layer1"
     showgrid="false"
     fit-margin-top="0"
     fit-margin-left="0"
     fit-margin-right="0"
     fit-margin-bottom="0"
     inkscape:window-width="1920"
     inkscape:window-height="1024"
     inkscape:window-x="0"
     inkscape:window-y="0"
     inkscape:window-maximized="1" />
  <metadata
     id="metadata1990">
    <rdf:RDF>
      <cc:Work
         rdf:about="">
        <dc:format>image/svg+xml</dc:format>
        <dc:type
           rdf:resource="http://purl.org/dc/dcmitype/StillImage" />
        <dc:title></dc:title>
      </cc:Work>
    </rdf:RDF>
  </metadata>
  <g
     inkscape:label="Layer 1"
     inkscape:groupmode="layer"
     id="layer1"
     transform="translate(164.9918,-19.652969)">
    <circle
       style="opacity:1;fill:#dcdcaa;fill-opacity:1;stroke:#5e3843;stroke-width:4;stroke-linecap:square;stroke-linejoin:miter;stroke-miterlimit:4;stroke-dasharray:none;stroke-dashoffset:11.33858299;stroke-opacity:1"
       id="path7526-6-0-9"
       cx="-3.7802536"
       cy="155.00296"
       r="133.34999" />
    <circle
       style="opacity:1;fill:#bdbec0;fill-opacity:1;stroke:#5e3843;stroke-width:4;stroke-linecap:square;stroke-linejoin:miter;stroke-miterlimit:4;stroke-dasharray:none;stroke-dashoffset:11.33858299;stroke-opacity:1"
       id="path7524-0-4-6"
       cx="-3.7802536"
       cy="155.00296"
       r="101.6" />
    <g
       transform="rotate(28.121255,-2776.6457,1193.8548)"
       id="g8370-7-8-0">
      <path
         inkscape:connector-curvature="0"
         id="path8182-6-5-8-6"
         d="m -816.53494,-1160.6828 c -4.51993,0 -8.22354,3.7151 -8.21656,8.2362 0.009,9.065 -6.7556,16.8038 -15.73858,18.0118 l -7.70286,1.0351 c -12.51903,1.6821 -21.95854,12.4836 -21.94544,25.1168 l 0.13848,160.97206 c 0.006,6.1879 5.07749,11.25225 11.26598,11.24225 h 0.003 3.02927 c 10e-4,0 0.002,0 0.003,0 l 78.74765,-0.082 h 3.02564 c 10e-4,0 0.002,0 0.003,0 6.18868,-0.01 11.25222,-5.07975 11.24222,-11.26965 l -0.13901,-160.96836 c -0.013,-12.6332 -9.47383,-23.4137 -21.99608,-25.0703 l -7.70496,-1.0196 c -8.98546,-1.1896 -15.7652,-8.9137 -15.77319,-17.9782 -0.005,-4.3767 -3.508,-7.9101 -7.83053,-8.1349 -0.12804,-0.059 -0.26728,-0.09 -0.40825,-0.09 z"
         style="opacity:1;fill:#e5e7e6;fill-opacity:1;stroke:none;stroke-width:4;stroke-linecap:square;stroke-linejoin:miter;stroke-miterlimit:4;stroke-dasharray:none;stroke-dashoffset:11.33858299;stroke-opacity:1"
         sodipodi:nodetypes="ccccccccccccccccccccc" />
      <path
         inkscape:connector-curvature="0"
         id="path8180-6-6-8-4"
         d="m -764.67351,-937.54656 c -0.11197,-0.004 -0.22897,0.005 -0.35139,0.0284 v 0.004 c -0.39056,0.0225 -0.78071,0.15492 -1.12501,0.41601 -2.19634,1.66791 -4.84995,2.67425 -7.77161,2.67425 a 0.98159828,0.98159828 0 0 0 -0.003,0 l -84.80515,0.0858 c -2.92312,0.003 -5.58025,-0.99563 -7.77886,-2.65822 a 0.98159828,0.98159828 0 0 0 -0.003,0 c -0.36375,-0.27392 -0.79743,-0.41971 -1.23455,-0.4377 a 0.98159828,0.98159828 0 0 0 -0.0135,0 c -1.20841,-0.0323 -2.22732,0.96248 -2.22674,2.16988 v 0.078 c 0.006,6.189 5.08021,11.2532 11.26959,11.2422 l 84.80258,-0.0858 c 6.18805,-0.006 11.25328,-5.07804 11.24429,-11.26755 0.19423,0.71496 -0.32639,-2.19379 -2.0061,-2.24946 z"
         style="opacity:1;fill:#a5a6a9;fill-opacity:1;stroke:none;stroke-width:4;stroke-linecap:square;stroke-linejoin:miter;stroke-miterlimit:4;stroke-dasharray:none;stroke-dashoffset:11.33858299;stroke-opacity:1" />
      <path
         inkscape:connector-curvature="0"
         id="path8178-0-4-9-9"
         d="m -776.94097,-922.31286 -5.44928,0.0119 0.26562,0.53123 a 0.98159828,0.98159828 0 0 0 -0.87488,-0.53538 c -1.18575,0.003 -2.16728,0.98637 -2.16627,2.17196 l 0.0294,16.67394 c 0.003,2.8521 2.35201,5.19142 5.20329,5.19142 a 0.98159828,0.98159828 0 0 0 0.003,0 c 2.85231,-0.003 5.19541,-2.35318 5.19141,-5.20539 l -0.0274,-16.67391 c -0.47728,-4.29281 -0.0508,-0.47164 -2.17403,-2.16575 z"
         style="opacity:1;fill:#a5a6a9;fill-opacity:1;stroke:none;stroke-width:4;stroke-linecap:square;stroke-linejoin:miter;stroke-miterlimit:4;stroke-dasharray:none;stroke-dashoffset:11.33858299;stroke-opacity:1" />
      <path
         inkscape:connector-curvature="0"
         id="path8176-8-6-7-9"
         d="m -801.16947,-922.28958 -5.99602,0.006 a 0.98159828,0.98159828 0 0 0 -0.0625,0 c -1.18578,0.003 -2.16728,0.98793 -2.16628,2.17352 l 0.0274,16.67598 c 0.003,2.85281 2.3541,5.19141 5.20536,5.19141 a 0.98159828,0.98159828 0 0 0 0.003,0 c 2.85205,-0.003 5.19642,-2.35146 5.19142,-5.20485 l -0.0269,-16.67598 c -0.003,-1.18581 -0.98835,-2.16577 -2.17403,-2.16577 z"
         style="opacity:1;fill:#a5a6a9;fill-opacity:1;stroke:none;stroke-width:4;stroke-linecap:square;stroke-linejoin:miter;stroke-miterlimit:4;stroke-dasharray:none;stroke-dashoffset:11.33858299;stroke-opacity:1" />
      <path
         inkscape:connector-curvature="0"
         id="path8174-5-3-7-0"
         d="m -825.40004,-922.26471 -5.99395,0.006 a 0.98159828,0.98159828 0 0 0 -0.0625,0 c -1.18576,0.003 -2.16728,0.98843 -2.16628,2.17403 l 0.0274,16.67391 c 0.003,2.85271 2.3541,5.19141 5.20538,5.19141 a 0.98159828,0.98159828 0 0 0 0.003,0 c 2.85207,-0.003 5.19641,-2.35196 5.19141,-5.20536 l -0.0295,-16.6734 c -0.003,-1.18581 -0.98835,-2.16628 -2.17403,-2.16628 z"
         style="opacity:1;fill:#a5a6a9;fill-opacity:1;stroke:none;stroke-width:4;stroke-linecap:square;stroke-linejoin:miter;stroke-miterlimit:4;stroke-dasharray:none;stroke-dashoffset:11.33858299;stroke-opacity:1" />
      <path
         inkscape:connector-curvature="0"
         id="rect8162-1-7-6-8"
         d="m -849.62852,-922.2409 -5.99808,0.008 a 0.98159828,0.98159828 0 0 0 -0.0625,0 c -1.18558,0.003 -2.16676,0.98636 -2.16575,2.17196 l 0.0289,16.676 c 0.003,2.8521 2.35202,5.19142 5.2033,5.19142 a 0.98159828,0.98159828 0 0 0 0.003,0 c 2.85204,-0.003 5.19641,-2.35207 5.19141,-5.20539 l -0.0254,-16.67547 c -0.003,-1.18568 -0.98838,-2.16627 -2.17403,-2.16627 z"
         style="opacity:1;fill:#a5a6a9;fill-opacity:1;stroke:none;stroke-width:4;stroke-linecap:square;stroke-linejoin:miter;stroke-miterlimit:4;stroke-dasharray:none;stroke-dashoffset:11.33858299;stroke-opacity:1" />
      <g
         style="fill:#5c3641;fill-opacity:1"
         id="g7645-7-2-7-2-9-4-9"
         transform="matrix(0.83863722,-0.00133546,0.00133546,0.83863722,-1360.5659,-611.24348)">
        <path
           sodipodi:nodetypes="cccccccccccccccccccccccccccccccccccccccccccccccccccccccccccccccccccccccccccccccccccccccccccccccccccccccccccccccccccccccccccccccccccccccccccccccccccccccccccc"
           inkscape:connector-curvature="0"
           id="path1293-8-6-0-3-2-0-1-19-7-3-3"
           d="m 718.62055,-621.43193 c -4.94767,-0.001 -8.94834,3.99391 -8.95117,8.9414 l -0.01,18.0586 c -0.001,1.04216 -0.84652,1.88632 -1.88868,1.88672 l -7.88648,-0.004 c -1.30687,9e-5 -2.21919,-1.29478 -1.77929,-2.52539 0.34832,-0.97434 0.55581,-1.961 0.55664,-2.97461 0.002,-4.94793 -3.99227,-8.94924 -8.93945,-8.95312 h -0.002 c -4.94769,-10e-4 -8.9464,3.99349 -8.94922,8.9414 -6.7e-4,1.16911 0.23673,2.27977 0.65625,3.32617 0.4211,1.0503 -0.16918,2.2327 -1.26172,2.52735 -3.80547,1.02742 -6.62461,4.45388 -6.62695,8.58789 l -0.12054,154.26201 c -0.001,4.94765 3.99394,8.94836 8.94141,8.95117 l 3.61132,0.002 c 1.04216,10e-4 1.88632,0.84652 1.88672,1.88868 l -0.002,5.19335 v 0.002 c -0.001,2.51596 -1.73326,4.71973 -4.16406,5.33008 h -0.004 l -3.50977,0.87695 v 0.002 c -3.99566,0.99649 -6.77499,4.54984 -6.77734,8.67578 l -0.002,3.33594 h 3.44531 l 0.002,-3.33398 v -0.002 c 10e-4,-2.51597 1.73187,-4.72133 4.16407,-5.33203 10e-4,-6.7e-4 0.003,-0.001 0.004,-0.002 l 3.51172,-0.875 c 3.99556,-0.99647 6.77304,-4.54937 6.77539,-8.67578 l 0.004,-5.19336 c 10e-4,-1.04291 0.8477,-1.88739 1.89062,-1.88672 l 7.22266,0.004 c 1.04291,0.001 1.88739,0.8477 1.88672,1.89062 l -0.0137,23.40625 h 3.44336 l 0.0156,-23.40625 c 0.001,-1.04291 0.8477,-1.88739 1.89062,-1.88672 l 21.66797,0.0117 c 1.04292,10e-4 1.8874,0.84771 1.88672,1.89063 l -0.0117,23.39062 h 3.44336 l 0.0137,-23.38867 c 0.001,-1.04292 0.84771,-1.8874 1.89063,-1.88672 l 7.22461,0.004 c 1.04291,10e-4 1.88739,0.8477 1.88672,1.89062 l -0.004,5.19141 c -0.002,4.12618 2.77217,7.68297 6.77149,8.6875 l 3.49804,0.87109 c 10e-4,6.7e-4 0.003,10e-4 0.004,0.002 2.43565,0.61343 4.16549,2.82561 4.16406,5.3418 l -0.002,3.28711 h 3.44531 l 0.002,-3.28516 v -0.002 c 0.002,-4.12412 -2.76869,-7.6748 -6.76562,-8.68164 l -3.50195,-0.87109 c -0.003,-6.6e-4 -0.007,-0.001 -0.01,-0.002 -2.43297,-0.618 -4.16158,-2.82953 -4.16016,-5.3457 l 0.004,-5.19336 c 10e-4,-1.04292 0.84771,-1.8874 1.89063,-1.88672 l 3.61132,0.002 c 4.94763,0.001 8.9464,-3.99354 8.94922,-8.94141 l 0.12054,-154.26201 c 0.002,-4.13391 -2.81298,-7.56201 -6.61719,-8.59375 -1.09208,-0.29634 -1.68054,-1.47965 -1.25781,-2.5293 0.42106,-1.04637 0.65922,-2.15676 0.66015,-3.32422 0.002,-4.94795 -3.9922,-8.94922 -8.93945,-8.95312 h -0.002 c -4.94767,-10e-4 -8.94641,3.99349 -8.94921,8.9414 -5.6e-4,1.01414 0.20516,1.99882 0.55273,2.97461 0.43816,1.22999 -0.4736,2.52306 -1.7793,2.52344 l -7.88867,-0.004 c -1.04365,-5.1e-4 -1.88923,-0.84709 -1.88849,-1.89074 l 0.0117,-18.05469 c 0.002,-4.94794 -3.99219,-8.94922 -8.93945,-8.95312 z m -0.004,3.44726 h 0.002 c 3.01708,0.003 5.49974,2.4894 5.49805,5.50391 l -0.0117,18.05664 c -0.001,1.04292 -0.84771,1.8874 -1.89063,1.88672 l -7.22265,-0.004 c -1.04291,-0.001 -1.88739,-0.8477 -1.88672,-1.89062 l 0.01,-18.05469 v -0.002 c 0.003,-3.01243 2.48557,-5.49671 5.50196,-5.4961 z m -28.89844,14.42774 h 0.002 c 3.01832,0.003 5.49782,2.49256 5.4961,5.50586 -0.003,3.01239 -2.48554,5.49669 -5.50196,5.49609 -3.01925,-0.002 -5.49976,-2.49194 -5.49804,-5.50586 0.003,-3.0124 2.48553,-5.49673 5.50195,-5.49609 z m 57.7832,0.0332 h 0.002 c 3.01708,0.003 5.49783,2.49061 5.4961,5.50391 -0.003,3.01237 -2.48551,5.49671 -5.50195,5.49609 -3.01803,-0.002 -5.49978,-2.48998 -5.49805,-5.50391 0.003,-3.01241 2.48556,-5.49671 5.50195,-5.49609 z m -65.01367,14.41016 72.22852,0.041 c 3.07235,0.0169 5.33906,3.04921 5.49804,5.50391 l -0.002,3.61133 c -0.001,1.04292 -0.84771,1.8874 -1.89063,1.88672 l -79.45312,-0.0449 c -1.04291,-10e-4 -1.88739,-0.8477 -1.88672,-1.89062 l 0.002,-3.60938 v -0.002 c 0.003,-3.01307 2.48659,-5.49783 5.50391,-5.49609 z m -3.61914,14.44336 21.66992,0.0117 c 1.04292,10e-4 1.8874,0.84771 1.88672,1.89063 l -0.10884,132.59209 c -10e-4,1.04292 -0.84771,1.8874 -1.89063,1.88672 l -21.66797,-0.0117 c -1.04292,-10e-4 -1.8874,-0.84771 -1.88672,-1.89063 l 0.10684,-132.59209 c 0.001,-1.04291 0.84771,-1.88739 1.89063,-1.88671 z m 28.89258,0.0156 21.66797,0.0137 c 1.04291,10e-4 1.88739,0.84771 1.88671,1.89063 l -0.10684,132.59209 c -0.001,1.04291 -0.8477,1.88739 -1.89062,1.88672 l -21.66992,-0.0117 c -1.04292,-0.001 -1.8874,-0.84771 -1.88672,-1.89063 l 0.10884,-132.59404 c 10e-4,-1.04292 0.84771,-1.8874 1.89063,-1.88672 z m 28.89062,0.0176 21.66992,0.0117 c 1.04291,10e-4 1.88739,0.8477 1.88672,1.89062 l -0.10884,132.59209 c -0.001,1.04292 -0.84771,1.8874 -1.89063,1.88672 l -21.66796,-0.0117 c -1.04291,-10e-4 -1.88739,-0.8477 -1.88672,-1.89062 l 0.10684,-132.59209 c 10e-4,-1.04291 0.8477,-1.88739 1.89062,-1.88672 z m -57.89399,139.78154 79.45117,0.0469 c 1.04291,10e-4 1.88739,0.8477 1.88672,1.89062 l -0.002,3.61133 c -0.003,3.01481 -2.48886,5.49782 -5.50391,5.49609 l -72.22851,-0.041 h -0.002 c -3.01605,-0.003 -5.49587,-2.49204 -5.49415,-5.50586 l 0.002,-3.61133 c 10e-4,-1.04291 0.8477,-1.88739 1.89062,-1.88672 z"
           style="fill:#5c3641;fill-opacity:1;stroke-width:3.6114614"
           transform="translate(-69.15781,7.95547)" />
        <path
           sodipodi:nodetypes="cccccsccccccccccccccccccccccccccccccccccccccccccccccccccccccccccccscccccccccccccccccccccccccccccccccccccccccc"
           inkscape:connector-curvature="0"
           id="path1293-8-6-0-0-7-6-2-38-6-4-0-1"
           d="m 649.75922,-657.33037 c -7.19871,-0.005 -13.03304,5.82259 -13.0371,13.02148 v 0.002 c -0.0108,9.19911 -6.8884,17.04833 -16.00391,18.25586 l -9.18945,1.21875 c -16.52759,2.19857 -28.99766,16.42043 -29.00977,33.0957 l -0.14984,206.39092 c -0.005,8.04471 5.72355,14.75958 13.30274,16.31054 0.65956,0.13498 1.13307,0.71544 1.13281,1.38868 l 0.002,20.24949 c -0.003,5.20488 4.20725,9.42087 9.41211,9.42382 5.20482,0.003 9.42086,-4.20726 9.42383,-9.4121 l -6e-4,-19.88231 c 4.9e-4,-0.78184 0.63417,-1.41552 1.41601,-1.41601 l 7.22266,0.004 c 0.78185,4.8e-4 1.41554,0.63417 1.41602,1.41602 l 6e-4,19.8823 c 0,5.20568 4.20753,9.4228 9.41211,9.42578 5.2045,0.003 9.42282,-4.20949 9.42578,-9.41406 l -6e-4,-19.8823 c 4.8e-4,-0.78184 0.63417,-1.41553 1.41601,-1.41602 l 7.22266,0.004 c 0.78184,4.9e-4 1.41552,0.63417 1.41601,1.41601 l 6e-4,19.88426 c 0,5.20567 4.20733,9.42084 9.41211,9.42383 5.20492,0.003 9.42087,-4.20724 9.42383,-9.41211 l -6e-4,-19.88426 c 4.9e-4,-0.78184 0.63418,-1.41553 1.41602,-1.41601 l 7.22265,0.004 c 0.78185,4.8e-4 1.41554,0.63417 1.41602,1.41602 l 6e-4,19.88425 c 0,5.20572 4.20721,9.42086 9.41211,9.42383 5.20491,0.003 9.4229,-4.20761 9.42578,-9.41211 l -6e-4,-20.24753 c -2.6e-4,-0.67324 0.47325,-1.2537 1.13281,-1.38868 7.58118,-1.54232 13.31765,-8.24812 13.32227,-16.29687 l 0.14984,-206.38897 c 0.01,-16.67585 -12.44685,-30.91391 -28.97266,-33.12695 l -9.1875,-1.22851 c -9.11383,-1.22177 -15.98762,-9.07919 -15.98242,-18.2793 0,-7.19977 -5.82268,-13.03301 -13.02149,-13.03711 z m -0.008,4.39063 c 4.75152,0.002 8.63751,3.89103 8.63477,8.64257 v 0.002 c -0.009,11.39193 8.50134,21.11592 19.79101,22.6289 l 9.18555,1.23047 c 14.35021,1.92168 25.17237,14.29301 25.16406,28.77344 l -0.14004,191.94365 c 0,6.74284 -5.51394,12.24798 -12.25586,12.24414 l -3.60742,-0.002 -93.90235,-0.0527 -3.61328,-0.002 c -6.74197,-0.003 -12.24798,-5.51388 -12.24414,-12.25586 l 0.14204,-191.94365 c 0.008,-14.48042 10.84475,-26.84273 25.19726,-28.74805 l 9.1875,-1.21875 c 11.2914,-1.50012 19.81187,-11.21501 19.81836,-22.60742 0,-4.75241 3.89108,-8.63747 8.64258,-8.63476 z m -61.53461,266.08818 c 0.29474,0.009 0.57946,0.10899 0.81445,0.28711 2.80173,2.12557 6.22421,3.42169 9.97852,3.42383 l 101.12109,0.0586 c 3.75422,0.002 7.17586,-1.28948 9.98047,-3.41211 0.93289,-0.70542 2.27044,-0.0407 2.27148,1.12891 v 0.0937 c 0,6.74315 -5.51581,12.24797 -12.25781,12.24414 l -101.11914,-0.0586 c -6.74198,-0.003 -12.24995,-5.51358 -12.24609,-12.25586 v -0.0937 c 1.8e-4,-0.79813 0.65922,-1.43862 1.45703,-1.41601 z m 14.39453,18.1582 7.22461,0.004 c 0.78184,4.9e-4 1.41552,0.63417 1.41601,1.41601 l 6e-4,19.88426 c 0,2.76096 -2.26925,5.02695 -5.0293,5.02539 -2.76092,0 -5.02695,-2.26923 -5.02539,-5.0293 l -0.003,-19.88425 c 4.8e-4,-0.78185 0.63417,-1.41554 1.41602,-1.41602 z m 28.89258,0.0176 7.22265,0.004 c 0.78185,4.8e-4 1.41554,0.63417 1.41602,1.41602 l 0.003,19.8823 c 0,2.76096 -2.26924,5.02697 -5.0293,5.02539 -2.76092,0 -5.02691,-2.26925 -5.02539,-5.02929 l -0.002,-19.88231 c 4.9e-4,-0.78184 0.63418,-1.41553 1.41602,-1.41601 z m 28.89257,0.0156 7.22266,0.004 c 0.78185,4.8e-4 1.41554,0.63417 1.41602,1.41602 l 6e-4,19.88425 c 0,2.76096 -2.26924,5.02697 -5.02929,5.02539 -2.76094,0 -5.02705,-2.26918 -5.02539,-5.02929 l -6e-4,-19.88426 c 4.8e-4,-0.78184 0.63417,-1.41553 1.41601,-1.41602 z m 28.89063,0.0176 7.22266,0.004 c 0.78184,4.9e-4 1.41552,0.63417 1.41601,1.41601 l 0.002,19.88231 c -10e-4,2.76008 -2.26921,5.02699 -5.02929,5.02539 -2.76093,0 -5.02706,-2.26916 -5.02539,-5.0293 l -0.003,-19.8823 c 4.8e-4,-0.78185 0.63417,-1.41554 1.41602,-1.41602 z"
           style="fill:#5c3641;fill-opacity:1;stroke-width:3.6114614" />
      </g>
    </g>
    <g
       transform="translate(885.1592,1564.407)"
       id="g1587-9-4"
       inkscape:path-effect="#path-effect1911-9">
      <path
         sodipodi:nodetypes="ccccccc"
         inkscape:connector-curvature="0"
         id="path7497-9-0-7-8"
         d="m -1050.151,-1405.7909 c 0,0 16.7328,43.4418 16.7328,43.4418 0,0 -16.7328,51.8082 -16.7328,51.8082 0,0 317.49998,-82.55 317.49998,-82.55 0,0 -14.67583,-40.781 -14.67583,-40.781 0,0 14.67583,-48.119 14.67583,-48.119 0,0 -317.49998,76.2 -317.49998,76.2 z"
         style="fill:#5e3843;fill-opacity:1;stroke:none;stroke-width:4.44857168;stroke-linecap:butt;stroke-linejoin:miter;stroke-miterlimit:4;stroke-dasharray:none;stroke-opacity:1"
         inkscape:original-d="m -1035.2556,-1433.9991 13.5406,33.5401 -13.5406,33.5401 h 274.31393 l -13.54062,-33.5401 13.54062,-33.5401 z" />
      <g
         style="fill:#fef0d1;fill-opacity:1"
         id="g7377-8-0-6-5-9"
         transform="matrix(1.1548567,0,0,1.1548567,-1782.2108,-1496.708)">
        <path
           style="color:#000000;font-style:normal;font-variant:normal;font-weight:normal;font-stretch:normal;font-size:medium;line-height:normal;font-family:sans-serif;font-variant-ligatures:normal;font-variant-position:normal;font-variant-caps:normal;font-variant-numeric:normal;font-variant-alternates:normal;font-feature-settings:normal;text-indent:0;text-align:start;text-decoration:none;text-decoration-line:none;text-decoration-style:solid;text-decoration-color:#000000;letter-spacing:normal;word-spacing:normal;text-transform:none;writing-mode:lr-tb;direction:ltr;text-orientation:mixed;dominant-baseline:auto;baseline-shift:baseline;text-anchor:start;white-space:normal;shape-padding:0;clip-rule:nonzero;display:inline;overflow:visible;visibility:visible;opacity:1;isolation:auto;mix-blend-mode:normal;color-interpolation:sRGB;color-interpolation-filters:linearRGB;solid-color:#000000;solid-opacity:1;vector-effect:none;fill:#fef0d1;fill-opacity:1;fill-rule:nonzero;stroke:none;stroke-width:5;stroke-linecap:round;stroke-linejoin:miter;stroke-miterlimit:4;stroke-dasharray:none;stroke-dashoffset:0;stroke-opacity:1;color-rendering:auto;image-rendering:auto;shape-rendering:auto;text-rendering:auto;enable-background:accumulate"
           d="m 656.61581,90.562591 c -1.70711,0.395756 -3.10188,2.322729 -3.10188,4.286953 0,1.964221 1.39477,3.207547 3.10188,2.766561 0,0 4.71636,-1.159921 4.71636,-1.159921 0,0 0,36.738626 0,36.738626 -0.0306,1.9778 1.34742,3.24128 3.05669,2.80409 1.70784,-0.43683 3.08264,-2.40199 3.05213,-4.36125 0,0 0,-36.683841 0,-36.683841 0,0 4.69155,-1.153818 4.69155,-1.153818 1.6928,-0.39527 3.0738,-2.312887 3.0738,-4.266728 0,-1.953841 -1.381,-3.194557 -3.0738,-2.760099 0,0 -15.51673,3.789427 -15.51673,3.789427 z"
           id="path817-5-7-2-9-0-3-6"
           inkscape:connector-curvature="0"
           inkscape:original-d="m 665.21652,66.543681 c -1.3913,-0.01497 -2.52718,1.107568 -2.52718,2.497492 0,1.389923 1.13588,2.512461 2.52718,2.497492 1.28329,0 2.56658,0 3.84987,0 0,8.682203 0,17.364407 0,26.04661 -0.025,1.396664 1.1015,2.542315 2.49985,2.542315 1.39835,0 2.52486,-1.145651 2.49985,-2.542315 0,-8.682203 0,-17.364407 0,-26.04661 1.2833,0 2.5666,0 3.8499,0 1.39129,0.01497 2.52717,-1.107569 2.52717,-2.497492 0,-1.389924 -1.13588,-2.512461 -2.52717,-2.497492 0,0 -12.69947,0 -12.69947,0 z" />
        <path
           style="color:#000000;font-style:normal;font-variant:normal;font-weight:normal;font-stretch:normal;font-size:medium;line-height:normal;font-family:sans-serif;font-variant-ligatures:normal;font-variant-position:normal;font-variant-caps:normal;font-variant-numeric:normal;font-variant-alternates:normal;font-feature-settings:normal;text-indent:0;text-align:start;text-decoration:none;text-decoration-line:none;text-decoration-style:solid;text-decoration-color:#000000;letter-spacing:normal;word-spacing:normal;text-transform:none;writing-mode:lr-tb;direction:ltr;text-orientation:mixed;dominant-baseline:auto;baseline-shift:baseline;text-anchor:start;white-space:normal;shape-padding:0;clip-rule:nonzero;display:inline;overflow:visible;visibility:visible;opacity:1;isolation:auto;mix-blend-mode:normal;color-interpolation:sRGB;color-interpolation-filters:linearRGB;solid-color:#000000;solid-opacity:1;vector-effect:none;fill:#fef0d1;fill-opacity:1;fill-rule:nonzero;stroke:none;stroke-width:5;stroke-linecap:round;stroke-linejoin:miter;stroke-miterlimit:4;stroke-dasharray:none;stroke-dashoffset:0;stroke-opacity:1;color-rendering:auto;image-rendering:auto;shape-rendering:auto;text-rendering:auto;enable-background:accumulate"
           d="m 683.6493,83.911344 c -1.67097,0.436772 -3.00679,2.35436 -2.98319,4.283854 0,0 0,40.071312 0,40.071312 -0.0303,1.96843 1.33474,3.2276 3.02792,2.79452 1.69177,-0.43272 3.05364,-2.38697 3.02341,-4.33703 0,0 0,-18.72872 0,-18.72872 0,0 5.46232,-1.36724 5.46232,-1.36724 0,0 0,18.7036 0,18.7036 -0.0301,1.96284 1.32721,3.21944 3.01084,2.78881 1.68224,-0.43029 3.03644,-2.37805 3.00639,-4.32263 0,0 0,-39.899013 0,-39.899013 0.0239,-1.974353 -1.35738,-3.239191 -3.05334,-2.794425 -1.66058,0.43572 -2.98737,2.346151 -2.96389,4.269101 0,0 0,14.262924 0,14.262924 0,0 -5.46232,1.357843 -5.46232,1.357843 0,0 0,-14.282086 0,-14.282086 0.024,-1.978802 -1.36354,-3.246138 -3.06814,-2.80082 z"
           id="path821-4-7-6-9-8-8-7"
           inkscape:connector-curvature="0"
           inkscape:original-d="m 687.40429,66.508577 c -1.37999,0.02046 -2.48237,1.154037 -2.4629,2.532591 0,9.514702 0,19.029405 0,28.544107 -0.025,1.396664 1.1015,2.542315 2.49985,2.542315 1.39835,0 2.52486,-1.145651 2.49985,-2.542315 0,-4.453637 0,-8.907275 0,-13.360912 1.50861,0 3.01722,0 4.52583,0 0,4.453637 0,8.907275 0,13.360912 -0.025,1.396664 1.1015,2.542315 2.49985,2.542315 1.39835,0 2.52486,-1.145651 2.49985,-2.542315 0,-9.514702 0,-19.029405 0,-28.544107 0.0199,-1.408285 -1.12914,-2.554481 -2.53886,-2.532591 -1.37918,0.02158 -2.48032,1.154829 -2.46084,2.532591 0,3.39624 0,6.79248 0,10.18872 -1.50861,0 -3.01722,0 -4.52583,0 0,-3.39624 0,-6.79248 0,-10.18872 0.0199,-1.407464 -1.12788,-2.553308 -2.5368,-2.532591 z" />
        <path
           style="color:#000000;font-style:normal;font-variant:normal;font-weight:normal;font-stretch:normal;font-size:medium;line-height:normal;font-family:sans-serif;font-variant-ligatures:normal;font-variant-position:normal;font-variant-caps:normal;font-variant-numeric:normal;font-variant-alternates:normal;font-feature-settings:normal;text-indent:0;text-align:start;text-decoration:none;text-decoration-line:none;text-decoration-style:solid;text-decoration-color:#000000;letter-spacing:normal;word-spacing:normal;text-transform:none;writing-mode:lr-tb;direction:ltr;text-orientation:mixed;dominant-baseline:auto;baseline-shift:baseline;text-anchor:start;white-space:normal;shape-padding:0;clip-rule:nonzero;display:inline;overflow:visible;visibility:visible;opacity:1;isolation:auto;mix-blend-mode:normal;color-interpolation:sRGB;color-interpolation-filters:linearRGB;solid-color:#000000;solid-opacity:1;vector-effect:none;fill:#fef0d1;fill-opacity:1;fill-rule:nonzero;stroke:none;stroke-width:5;stroke-linecap:round;stroke-linejoin:round;stroke-miterlimit:4;stroke-dasharray:none;stroke-dashoffset:0;stroke-opacity:1;color-rendering:auto;image-rendering:auto;shape-rendering:auto;text-rendering:auto;enable-background:accumulate"
           d="m 706.61968,78.350861 c -1.65284,0.404149 -2.99352,2.292265 -2.99362,4.217413 0,0 0,39.845656 0,39.845656 10e-5,1.9251 1.34078,3.14289 2.99362,2.72066 0,0 11.36774,-2.90746 11.36774,-2.90746 1.66327,-0.39036 3.0267,-2.30338 3.0267,-4.24513 0,-1.94175 -1.36343,-3.15961 -3.0267,-2.7021 0,0 -8.37794,2.12836 -8.37794,2.12836 0,0 0,-10.72058 0,-10.72058 0,0 4.59723,-1.15573 4.59723,-1.15573 1.65812,-0.39601 3.01084,-2.29782 3.01084,-4.23155 0,-1.933739 -1.35272,-3.157737 -3.01084,-2.722911 0,0 -4.59723,1.147817 -4.59723,1.147817 0,0 0,-15.14223 0,-15.14223 0,0 8.37794,-2.060433 8.37794,-2.060433 1.65502,-0.386215 3.00521,-2.278559 3.00521,-4.210486 0,-1.93193 -1.35019,-3.162472 -3.00521,-2.737476 0,0 -11.36774,2.77618 -11.36774,2.77618 z"
           id="path827-2-4-0-4-5-8-7"
           inkscape:connector-curvature="0"
           inkscape:original-d="m 706.48996,66.543681 c -1.38054,3.58e-4 -2.49952,1.118392 -2.4996,2.497487 0,9.514702 0,19.029405 0,28.544107 8e-5,1.379095 1.11906,2.497125 2.4996,2.497485 3.17517,0 6.35035,0 9.52553,0 1.39823,0.0252 2.54525,-1.100234 2.54525,-2.49723 0,-1.396996 -1.14702,-2.522376 -2.54525,-2.497233 -2.34181,0 -4.68362,0 -7.02543,0 0,-2.563741 0,-5.127482 0,-7.691223 1.28382,0 2.56764,0 3.85146,0 1.39129,0.01497 2.52717,-1.107569 2.52717,-2.497492 0,-1.389924 -1.13588,-2.512461 -2.52717,-2.497492 -1.28382,0 -2.56764,0 -3.85146,0 0,-3.621142 0,-7.242284 0,-10.863425 2.34181,0 4.68362,0 7.02543,0 1.39129,0.01497 2.52717,-1.107569 2.52717,-2.497492 0,-1.389924 -1.13588,-2.512461 -2.52717,-2.497492 -10e-6,0 -9.52553,0 -9.52553,0 z" />
        <path
           style="color:#000000;font-style:normal;font-variant:normal;font-weight:normal;font-stretch:normal;font-size:medium;line-height:normal;font-family:sans-serif;font-variant-ligatures:normal;font-variant-position:normal;font-variant-caps:normal;font-variant-numeric:normal;font-variant-alternates:normal;font-feature-settings:normal;text-indent:0;text-align:start;text-decoration:none;text-decoration-line:none;text-decoration-style:solid;text-decoration-color:#000000;letter-spacing:normal;word-spacing:normal;text-transform:none;writing-mode:lr-tb;direction:ltr;text-orientation:mixed;dominant-baseline:auto;baseline-shift:baseline;text-anchor:start;white-space:normal;shape-padding:0;clip-rule:nonzero;display:inline;overflow:visible;visibility:visible;opacity:1;isolation:auto;mix-blend-mode:normal;color-interpolation:sRGB;color-interpolation-filters:linearRGB;solid-color:#000000;solid-opacity:1;vector-effect:none;fill:#fef0d1;fill-opacity:1;fill-rule:nonzero;stroke:none;stroke-width:5;stroke-linecap:round;stroke-linejoin:round;stroke-miterlimit:4;stroke-dasharray:none;stroke-dashoffset:0;stroke-opacity:1;color-rendering:auto;image-rendering:auto;shape-rendering:auto;text-rendering:auto;enable-background:accumulate"
           d="m 729.29144,72.814088 c -1.63453,0.399369 -2.96051,2.27516 -2.96067,4.189703 0,0 0,39.622849 0,39.622849 -0.0234,1.93972 1.30953,3.18109 2.96067,2.75877 1.64978,-0.42198 2.97962,-2.34206 2.95632,-4.26703 0,0 0,-11.71527 0,-11.71527 -1.55757,-3.25844 7.20311,15.06898 5.65112,11.82219 0.72688,1.52332 2.49603,1.76384 3.94979,0.53839 1.4527,-1.22457 2.04066,-3.44977 1.31363,-4.97017 -0.75027,-1.57211 -4.592,-9.62199 -5.34398,-11.197696 0,0 2.714,-0.682287 2.714,-0.682287 1.6241,-0.408489 2.93968,-2.284585 2.93984,-4.190985 0,0 0,-21.919698 0,-21.919698 -1.6e-4,-1.906319 -1.31574,-3.130397 -2.93984,-2.733965 0,0 -11.24088,2.745199 -11.24088,2.745199 z m 2.95632,6.201165 c 0,0 5.34039,-1.31339 5.34039,-1.31339 0,0 0,15.037866 0,15.037866 0,0 -4.52124,1.128844 -4.52124,1.128844 0,0 -0.81915,0.204523 -0.81915,0.204523 0,0 0,-15.057843 0,-15.057843 z"
           id="path831-1-0-6-5-3-3-3"
           inkscape:connector-curvature="0"
           inkscape:original-d="m 725.54094,66.543701 c -1.38066,1.37e-4 -2.49987,1.118175 -2.5,2.497387 0,9.514785 0,19.029571 0,28.544357 -0.0197,1.393082 1.10532,2.532955 2.5,2.532955 1.39468,0 2.51972,-1.139873 2.5,-2.532955 0,-2.817366 0,-5.634732 0,-8.452098 -1.31761,-2.632989 6.10667,12.203053 4.78907,9.570068 0.61698,1.234849 2.11957,1.735775 3.35528,1.118567 1.2357,-0.617208 1.73609,-2.118581 1.11737,-3.35256 -0.63827,-1.2752 -3.90275,-7.797338 -4.54101,-9.072538 0.76823,0 1.53646,0 2.30469,0 1.38065,-1.43e-4 2.49985,-1.118179 2.49999,-2.497387 0,-5.286137 0,-10.572273 0,-15.858409 -1.4e-4,-1.379208 -1.11934,-2.497244 -2.49999,-2.497387 -3.17514,0 -6.35027,0 -9.5254,0 z m 2.5,4.994774 c 1.50846,0 3.01692,0 4.52539,0 0,3.621212 0,7.242423 0,10.863635 -1.27735,0 -2.55469,0 -3.83203,0 -0.23112,0 -0.46224,0 -0.69336,0 0,1.05869 0,-11.922326 0,-10.863635 z" />
        <path
           style="color:#000000;font-style:normal;font-variant:normal;font-weight:normal;font-stretch:normal;font-size:medium;line-height:normal;font-family:sans-serif;font-variant-ligatures:normal;font-variant-position:normal;font-variant-caps:normal;font-variant-numeric:normal;font-variant-alternates:normal;font-feature-settings:normal;text-indent:0;text-align:start;text-decoration:none;text-decoration-line:none;text-decoration-style:solid;text-decoration-color:#000000;letter-spacing:normal;word-spacing:normal;text-transform:none;writing-mode:lr-tb;direction:ltr;text-orientation:mixed;dominant-baseline:auto;baseline-shift:baseline;text-anchor:start;white-space:normal;shape-padding:0;clip-rule:nonzero;display:inline;overflow:visible;visibility:visible;opacity:1;isolation:auto;mix-blend-mode:normal;color-interpolation:sRGB;color-interpolation-filters:linearRGB;solid-color:#000000;solid-opacity:1;vector-effect:none;fill:#fef0d1;fill-opacity:1;fill-rule:nonzero;stroke:none;stroke-width:5;stroke-linecap:round;stroke-linejoin:round;stroke-miterlimit:4;stroke-dasharray:none;stroke-dashoffset:0;stroke-opacity:1;color-rendering:auto;image-rendering:auto;shape-rendering:auto;text-rendering:auto;enable-background:accumulate"
           d="m 751.68091,67.346229 c -1.60478,0.411287 -2.89801,2.264838 -2.89809,4.155111 0,0 0,39.40218 0,39.40218 -0.0231,1.92889 1.29499,3.16523 2.9278,2.74759 1.63148,-0.41729 2.94656,-2.32481 2.92352,-4.23911 0,0 0,-21.466105 0,-21.466105 0.0958,0.258348 1.68826,4.551942 1.784,4.810072 0.44335,1.194852 1.51608,1.781531 2.7083,1.481813 1.1915,-0.299538 2.26238,-1.424144 2.70464,-2.839678 -0.13672,0.437664 1.91643,-6.134903 1.77985,-5.697662 0,0 0,21.42334 0,21.42334 -0.0229,1.92173 1.28542,3.15474 2.90618,2.74019 1.61944,-0.41422 2.92483,-2.31346 2.90196,-4.22071 0,0 0,-39.199361 0,-39.199361 -0.001,-1.642391 -0.98736,-2.812445 -2.3523,-2.790249 -1.36588,0.02221 -2.72771,1.231992 -3.24682,2.885275 -0.19432,0.621236 -4.49762,14.379088 -4.69237,15.00172 0,0 -4.70342,-12.702045 -4.70342,-12.702045 -0.44811,-1.20823 -1.53722,-1.800981 -2.74325,-1.492371 z"
           id="path833-9-6-6-1-9-1-7"
           inkscape:connector-curvature="0"
           inkscape:original-d="m 744.56633,66.543701 c -1.37073,0.01404 -2.47455,1.128018 -2.47461,2.497387 0,5.305105 0,23.239251 0,28.544357 -0.0197,1.393082 1.10532,2.532955 2.5,2.532955 1.39468,0 2.51972,-1.139873 2.5,-2.532955 0,-5.191183 0,-10.382365 0,-15.573547 0.082,0.204782 1.44535,3.609577 1.52735,3.814359 0.37978,0.948073 1.29905,1.569704 2.32129,1.569704 1.02223,0 1.9415,-0.621631 2.32129,-1.569704 -0.11742,0.293157 1.6467,-4.111422 1.52929,-3.818265 0,5.192484 0,10.384968 0,15.577453 -0.0197,1.393082 1.10532,2.532955 2.5,2.532955 1.39468,0 2.51972,-1.139873 2.5,-2.532955 0,-9.514786 0,-19.029572 0,-28.544357 -10e-4,-1.19617 -0.85101,-2.223633 -2.02676,-2.450163 -1.17575,-0.226529 -2.34722,0.411481 -2.79355,1.521444 -0.16705,0.417135 -3.86225,9.64461 -4.02929,10.061744 0.28079,0.701174 -4.31009,-10.762917 -4.0293,-10.061744 -0.38339,-0.955978 -1.31485,-1.578877 -2.34571,-1.568668 z" />
        <path
           style="color:#000000;font-style:normal;font-variant:normal;font-weight:normal;font-stretch:normal;font-size:medium;line-height:normal;font-family:sans-serif;font-variant-ligatures:normal;font-variant-position:normal;font-variant-caps:normal;font-variant-numeric:normal;font-variant-alternates:normal;font-feature-settings:normal;text-indent:0;text-align:start;text-decoration:none;text-decoration-line:none;text-decoration-style:solid;text-decoration-color:#000000;letter-spacing:normal;word-spacing:normal;text-transform:none;writing-mode:lr-tb;direction:ltr;text-orientation:mixed;dominant-baseline:auto;baseline-shift:baseline;text-anchor:start;white-space:normal;shape-padding:0;clip-rule:nonzero;display:inline;overflow:visible;visibility:visible;opacity:1;isolation:auto;mix-blend-mode:normal;color-interpolation:sRGB;color-interpolation-filters:linearRGB;solid-color:#000000;solid-opacity:1;vector-effect:none;fill:#fef0d1;fill-opacity:1;fill-rule:nonzero;stroke:none;stroke-width:5;stroke-linecap:round;stroke-linejoin:miter;stroke-miterlimit:4;stroke-dasharray:none;stroke-dashoffset:0;stroke-opacity:1;color-rendering:auto;image-rendering:auto;shape-rendering:auto;text-rendering:auto;enable-background:accumulate"
           d="m 777.5517,61.028147 c -1.6079,0.372149 -2.92158,2.232507 -2.92158,4.138766 0,1.906258 1.31368,3.122715 2.92158,2.706753 0,0 3.3432,-0.822212 3.3432,-0.822212 0,0 0,0.921771 0,0.921771 0,0 0,30.403618 0,30.403618 0,0 0,0.92177 0,0.92177 0,0 -3.3432,0.849317 -3.3432,0.849317 -1.61592,0.37605 -2.94248,2.25649 -2.94248,4.17246 0,1.91597 1.32657,3.12012 2.94248,2.67235 0,0 12.43121,-3.17946 12.43121,-3.17946 1.60454,-0.37597 2.91982,-2.24882 2.91982,-4.155984 0,-1.907169 -1.31528,-3.1094 -2.91982,-2.667442 0,0 -3.33034,0.846055 -3.33034,0.846055 0,0 0,-0.920435 0,-0.920435 0,0 0,-30.3596 0,-30.3596 0,0 0,-0.920437 0,-0.920437 0,0 3.33034,-0.81905 3.33034,-0.81905 1.59657,-0.37221 2.8991,-2.225043 2.8991,-4.122566 0,-1.897525 -1.30253,-3.111922 -2.8991,-2.701572 0,0 -12.43121,3.035898 -12.43121,3.035898 z"
           id="path1308-62-4-4-0-4-8-1"
           inkscape:connector-curvature="0"
           inkscape:original-d="m 766.81652,66.543681 c -1.3913,-0.01497 -2.52718,1.107568 -2.52718,2.497492 0,1.389923 1.13588,2.512461 2.52718,2.497492 0.96548,0 1.93096,0 2.89644,0 0,0.224385 0,0.44877 0,0.673156 0,7.401107 0,14.802214 0,22.203321 0,0.224385 0,0.44877 0,0.673155 -0.96548,0 -1.93096,0 -2.89644,0 -1.39824,-0.02514 -2.54525,1.100237 -2.54525,2.497233 0,1.396996 1.14702,2.52238 2.54525,2.49723 3.59822,0 7.19645,0 10.79468,0 1.39823,0.0252 2.54525,-1.100234 2.54525,-2.49723 0,-1.396996 -1.14702,-2.522376 -2.54525,-2.497233 -0.96618,0 -1.93236,0 -2.89854,0 0,-0.224385 0,-0.44877 0,-0.673155 0,-7.401107 0,-14.802214 0,-22.203321 0,-0.224386 0,-0.448771 0,-0.673156 0.96618,0 1.93236,0 2.89854,0 1.39129,0.01497 2.52717,-1.107569 2.52717,-2.497492 0,-1.389924 -1.13588,-2.512461 -2.52717,-2.497492 -1e-5,0 -10.79468,0 -10.79468,0 z" />
        <path
           style="color:#000000;font-style:normal;font-variant:normal;font-weight:normal;font-stretch:normal;font-size:medium;line-height:normal;font-family:sans-serif;font-variant-ligatures:normal;font-variant-position:normal;font-variant-caps:normal;font-variant-numeric:normal;font-variant-alternates:normal;font-feature-settings:normal;text-indent:0;text-align:start;text-decoration:none;text-decoration-line:none;text-decoration-style:solid;text-decoration-color:#000000;letter-spacing:normal;word-spacing:normal;text-transform:none;writing-mode:lr-tb;direction:ltr;text-orientation:mixed;dominant-baseline:auto;baseline-shift:baseline;text-anchor:start;white-space:normal;shape-padding:0;clip-rule:nonzero;display:inline;overflow:visible;visibility:visible;opacity:1;isolation:auto;mix-blend-mode:normal;color-interpolation:sRGB;color-interpolation-filters:linearRGB;solid-color:#000000;solid-opacity:1;vector-effect:none;fill:#fef0d1;fill-opacity:1;fill-rule:nonzero;stroke:none;stroke-width:5;stroke-linecap:square;stroke-linejoin:round;stroke-miterlimit:4;stroke-dasharray:none;stroke-dashoffset:0;stroke-opacity:1;color-rendering:auto;image-rendering:auto;shape-rendering:auto;text-rendering:auto;enable-background:accumulate"
           d="m 806.86861,53.868524 c -5.16394,1.261116 -8.83678,7.90969 -8.83678,14.211265 0,0 0,21.621781 0,21.621781 0,6.301574 3.67284,11.1138 8.83678,9.793055 0,0 1.06461,-0.272289 1.06461,-0.272289 5.14769,-1.316594 8.79489,-7.97387 8.79489,-14.24569 0,0 0,-21.519692 0,-21.519692 0,-6.271822 -3.6472,-11.105572 -8.79489,-9.848424 0,0 -1.06461,0.259994 -1.06461,0.259994 z m 0,6.794812 c 0,0 1.06461,-0.261826 1.06461,-0.261826 1.45958,-0.358963 3.12382,1.187266 3.12382,4.457671 0,0 0,21.550659 0,21.550659 0,3.270405 -1.66424,5.64872 -3.12382,6.019518 0,0 -1.06461,0.270458 -1.06461,0.270458 -1.46145,0.371273 -3.12824,-1.164439 -3.12824,-4.440908 0,0 0,-21.59061 0,-21.59061 0,-3.276468 1.66679,-5.64554 3.12824,-6.004962 z"
           id="rect1323-7-7-6-3-1-9-2"
           inkscape:connector-curvature="0"
           inkscape:original-d="m 792.38274,66.543701 c -4.53078,0 -7.74609,4.218496 -7.74609,8.840361 0,5.286136 0,10.572272 0,15.858409 0,4.621864 3.21531,8.840359 7.74609,8.840359 0.31185,0 0.6237,0 0.93555,0 4.53077,0 7.74804,-4.218495 7.74804,-8.840359 0,-5.286137 0,-10.572273 0,-15.858409 0,-4.621865 -3.21727,-8.840361 -7.74804,-8.840361 -0.31185,0 -0.6237,0 -0.93555,0 z m 0,4.994774 c 0.31185,0 0.6237,0 0.93555,0 1.28346,0 2.74804,1.439005 2.74804,3.845587 0,5.286136 0,10.572272 0,15.858409 0,2.406582 -1.46458,3.845587 -2.74804,3.845587 -0.31185,0 -0.6237,0 -0.93555,0 -1.28346,0 -2.74609,-1.439005 -2.74609,-3.845587 0,-5.286137 0,-10.572273 0,-15.858409 0,-2.406582 1.46263,-3.845587 2.74609,-3.845587 z" />
        <path
           style="color:#000000;font-style:normal;font-variant:normal;font-weight:normal;font-stretch:normal;font-size:medium;line-height:normal;font-family:sans-serif;font-variant-ligatures:normal;font-variant-position:normal;font-variant-caps:normal;font-variant-numeric:normal;font-variant-alternates:normal;font-feature-settings:normal;text-indent:0;text-align:start;text-decoration:none;text-decoration-line:none;text-decoration-style:solid;text-decoration-color:#000000;letter-spacing:normal;word-spacing:normal;text-transform:none;writing-mode:lr-tb;direction:ltr;text-orientation:mixed;dominant-baseline:auto;baseline-shift:baseline;text-anchor:start;white-space:normal;shape-padding:0;clip-rule:nonzero;display:inline;overflow:visible;visibility:visible;opacity:1;isolation:auto;mix-blend-mode:normal;color-interpolation:sRGB;color-interpolation-filters:linearRGB;solid-color:#000000;solid-opacity:1;vector-effect:none;fill:#fef0d1;fill-opacity:1;fill-rule:nonzero;stroke:none;stroke-width:5;stroke-linecap:round;stroke-linejoin:round;stroke-miterlimit:4;stroke-dasharray:none;stroke-dashoffset:0;stroke-opacity:1;color-rendering:auto;image-rendering:auto;shape-rendering:auto;text-rendering:auto;enable-background:accumulate"
           d="m 838.90043,45.993103 c -1.54599,0.405165 -2.78187,2.237772 -2.76008,4.094082 0,0 0,22.654603 0,22.654603 1.96565,4.826513 -10.87417,-26.700573 -8.89759,-21.847266 -0.54177,-1.32355 -1.85823,-1.805945 -3.15943,-1.156811 -1.30205,0.64956 -2.23444,2.255252 -2.23649,3.852446 0,0 0,38.688631 0,38.688631 -0.0223,1.893847 1.24822,3.11387 2.82209,2.711314 1.5726,-0.402235 2.84025,-2.26922 2.81804,-4.149006 0,0 0,-22.701955 0,-22.701955 2.7038,6.628476 6.19903,15.197211 8.89431,21.804802 0.53759,1.318468 1.8479,1.7879 3.14165,1.126433 1.29289,-0.66104 2.21694,-2.271474 2.21669,-3.862335 0,0 0,-38.493093 0,-38.493093 0.0221,-1.903556 -1.26191,-3.135205 -2.83919,-2.721845 z"
           id="path833-8-3-4-2-7-5-6-2"
           inkscape:connector-curvature="0"
           inkscape:original-d="m 820.75383,66.50461 c -1.37995,0.02047 -2.48232,1.154128 -2.46289,2.532809 0,5.592464 0,11.184929 0,16.777393 1.75365,3.941529 -9.66967,-21.7336 -7.91601,-17.792071 -0.48085,-1.075786 -1.64871,-1.669635 -2.80227,-1.424928 -1.15355,0.244707 -1.97913,1.261431 -1.98094,2.439606 0,9.515905 0,19.03181 0,28.547715 -0.0197,1.393246 1.10532,2.533256 2.5,2.533256 1.39468,0 2.51972,-1.14001 2.5,-2.533256 0,-5.591815 0,-11.18363 0,-16.775445 2.40202,5.399524 5.51205,12.390599 7.91407,17.790123 0.47949,1.078258 1.64875,1.674278 2.804,1.429318 1.15524,-0.24497 1.98138,-1.264113 1.98115,-2.443996 0,-9.515905 0,-19.03181 0,-28.547715 0.0198,-1.407722 -1.1281,-2.553704 -2.53711,-2.532809 z" />
        <path
           style="color:#000000;font-style:normal;font-variant:normal;font-weight:normal;font-stretch:normal;font-size:medium;line-height:normal;font-family:sans-serif;font-variant-ligatures:normal;font-variant-position:normal;font-variant-caps:normal;font-variant-numeric:normal;font-variant-alternates:normal;font-feature-settings:normal;text-indent:0;text-align:start;text-decoration:none;text-decoration-line:none;text-decoration-style:solid;text-decoration-color:#000000;letter-spacing:normal;word-spacing:normal;text-transform:none;writing-mode:lr-tb;direction:ltr;text-orientation:mixed;dominant-baseline:auto;baseline-shift:baseline;text-anchor:start;white-space:normal;shape-padding:0;clip-rule:nonzero;display:inline;overflow:visible;visibility:visible;opacity:1;isolation:auto;mix-blend-mode:normal;color-interpolation:sRGB;color-interpolation-filters:linearRGB;solid-color:#000000;solid-opacity:1;vector-effect:none;fill:#fef0d1;fill-opacity:1;fill-rule:nonzero;stroke:none;stroke-width:5;stroke-linecap:round;stroke-linejoin:miter;stroke-miterlimit:4;stroke-dasharray:none;stroke-dashoffset:0;stroke-opacity:1;color-rendering:auto;image-rendering:auto;shape-rendering:auto;text-rendering:auto;enable-background:accumulate"
           d="m 849.58027,43.390213 c -1.55021,0.358403 -2.81675,2.180928 -2.81675,4.054622 0,1.873696 1.26654,3.07546 2.81675,2.674049 0,0 3.22334,-0.7927 3.22334,-0.7927 0,0 0,0.90605 0,0.90605 0,0 0,29.885103 0,29.885103 0,0 0,0.906051 0,0.906051 0,0 -3.22334,0.818865 -3.22334,0.818865 -1.55794,0.361899 -2.8369,2.203884 -2.8369,4.087122 0,1.88324 1.27896,3.073198 2.8369,2.640849 0,0 11.98604,-3.065596 11.98604,-3.065596 1.54717,-0.361917 2.81546,-2.19659 2.81546,-4.071337 0,-1.874745 -1.26829,-3.0628 -2.81546,-2.636 0,0 -3.21121,0.815784 -3.21121,0.815784 0,0 0,-0.904763 0,-0.904763 0,0 0,-29.842617 0,-29.842617 0,0 0,-0.904762 0,-0.904762 0,0 3.21121,-0.789718 3.21121,-0.789718 1.5395,-0.358512 2.79547,-2.173823 2.79547,-4.039088 0,-1.865263 -1.25597,-3.064991 -2.79547,-2.668947 0,0 -11.98604,2.927033 -11.98604,2.927033 z"
           id="path1308-3-1-8-8-8-4-4-1"
           inkscape:connector-curvature="0"
           inkscape:original-d="m 830.31652,66.50844 c -1.3913,-0.01498 -2.52718,1.108728 -2.52718,2.500105 0,1.391378 1.13588,2.51509 2.52718,2.500105 0.96548,0 1.93096,0 2.89644,0 0,0.22462 0,0.44924 0,0.67386 0,7.40885 0,14.8177 0,22.22655 0,0.22462 0,0.44924 0,0.67386 -0.96548,0 -1.93096,0 -2.89644,0 -1.39823,-0.02517 -2.54525,1.101388 -2.54525,2.499845 0,1.398458 1.14702,2.525015 2.54525,2.499845 3.59822,0 7.19645,0 10.79468,0 1.39823,0.0252 2.54525,-1.101387 2.54525,-2.499845 0,-1.398457 -1.14702,-2.525015 -2.54525,-2.499845 -0.96618,0 -1.93236,0 -2.89854,0 0,-0.22462 0,-0.44924 0,-0.67386 0,-7.40885 0,-14.8177 0,-22.22655 0,-0.22462 0,-0.44924 0,-0.67386 0.96618,0 1.93236,0 2.89854,0 1.39129,0.01498 2.52717,-1.108727 2.52717,-2.500105 0,-1.391377 -1.13588,-2.515089 -2.52717,-2.500105 0,0 -10.79468,0 -10.79468,0 z" />
        <path
           style="color:#000000;font-style:normal;font-variant:normal;font-weight:normal;font-stretch:normal;font-size:medium;line-height:normal;font-family:sans-serif;font-variant-ligatures:normal;font-variant-position:normal;font-variant-caps:normal;font-variant-numeric:normal;font-variant-alternates:normal;font-feature-settings:normal;text-indent:0;text-align:start;text-decoration:none;text-decoration-line:none;text-decoration-style:solid;text-decoration-color:#000000;letter-spacing:normal;word-spacing:normal;text-transform:none;writing-mode:lr-tb;direction:ltr;text-orientation:mixed;dominant-baseline:auto;baseline-shift:baseline;text-anchor:start;white-space:normal;shape-padding:0;clip-rule:nonzero;display:inline;overflow:visible;visibility:visible;opacity:1;isolation:auto;mix-blend-mode:normal;color-interpolation:sRGB;color-interpolation-filters:linearRGB;solid-color:#000000;solid-opacity:1;vector-effect:none;fill:#fef0d1;fill-opacity:1;fill-rule:nonzero;stroke:none;stroke-width:5;stroke-linecap:round;stroke-linejoin:round;stroke-miterlimit:4;stroke-dasharray:none;stroke-dashoffset:0;stroke-opacity:1;color-rendering:auto;image-rendering:auto;shape-rendering:auto;text-rendering:auto;enable-background:accumulate"
           d="m 874.8662,37.25728 c -1.51776,0.398052 -2.73107,2.212582 -2.70964,4.053642 0,0 0,38.229233 0,38.229233 -0.0407,4.519388 5.53772,3.090846 5.49719,-1.401375 0,0 0,-11.475189 0,-11.475189 0,0 9.04638,11.269849 9.04638,11.269849 2.2858,2.966789 6.61138,-2.430426 4.23612,-5.279235 0,0 -10.21739,-12.75641 -10.21739,-12.75641 0,0 10.36446,-21.369323 10.36446,-21.369323 1.26899,-2.547571 -0.0759,-5.268795 -2.30515,-4.661128 -0.90036,0.245308 -1.73287,1.014515 -2.22485,2.056001 0,0 -8.89957,18.319202 -8.89957,18.319202 0,0 0,-14.278916 0,-14.278916 0.0218,-1.887959 -1.23896,-3.112635 -2.78755,-2.706351 z"
           id="path1366-0-5-9-8-1-3-5"
           inkscape:connector-curvature="0"
           inkscape:original-d="m 853.16714,66.53984 a 2.50025,2.50025 0 0 0 -2.4629,2.53524 v 28.57397 a 2.50025,2.50025 0 1 0 5.0002,0 v -8.58914 l 8.25944,10.16527 a 2.50025,2.50025 0 1 0 3.88091,-3.15226 l -9.34619,-11.50266 9.48108,-14.10095 a 2.50025,2.50025 0 0 0 -2.11307,-3.92379 2.50025,2.50025 0 0 0 -2.03708,1.13482 L 855.70444,79.7628 V 69.07508 a 2.50025,2.50025 0 0 0 -2.5373,-2.53524 z" />
      </g>
      <path
         transform="scale(0.26458333)"
         inkscape:connector-curvature="0"
         id="rect1250-3-0"
         d="m -3961.8891,-5294.5697 c 0,0 2.836,7.3627 2.836,7.3627 0,0 1181.2389,-285.3636 1181.2389,-285.3636 0,0 2.4749,-8.1151 2.4749,-8.1151 0,0 -1186.5498,286.116 -1186.5498,286.116 z"
         style="fill:#fef0d1;fill-opacity:1;stroke:none;stroke-width:17.66526604;stroke-linecap:round;stroke-miterlimit:4;stroke-dasharray:none;stroke-opacity:1"
         inkscape:original-d="m -3906.9805,-5405.4805 2.2891,5.67 h 1020.6055 l 2.289,-5.67 z" />
      <path
         inkscape:connector-curvature="0"
         id="rect1250-1-3-9"
         transform="scale(0.26458333)"
         d="m -3960.6476,-4979.321 c 0,0 -2.8365,8.7822 -2.8365,8.7822 0,0 1189.5362,-308.231 1189.5362,-308.231 0,0 -2.4746,-6.8763 -2.4746,-6.8763 0,0 -1184.2251,306.3251 -1184.2251,306.3251 z"
         style="fill:#fef0d1;fill-opacity:1;stroke:none;stroke-width:17.66526604;stroke-linecap:round;stroke-miterlimit:4;stroke-dasharray:none;stroke-opacity:1"
         inkscape:original-d="m -3905.9785,-5183.1504 -2.2891,5.6699 h 1027.7578 l -2.289,-5.6699 z" />
    </g>
    <path
       style="opacity:1;fill:none;fill-opacity:1;stroke:#5e3843;stroke-width:4;stroke-linecap:round;stroke-linejoin:miter;stroke-miterlimit:4;stroke-dasharray:none;stroke-dashoffset:11.33858299;stroke-opacity:1"
       id="path7526-6-0-0-0"
       sodipodi:type="arc"
       sodipodi:cx="-3.7802536"
       sodipodi:cy="155.00296"
       sodipodi:rx="117.475"
       sodipodi:ry="117.475"
       sodipodi:start="0.33624115"
       sodipodi:end="1.3952709"
       d="M 107.11632,193.76279 A 117.475,117.475 0 0 1 16.733878,270.67295"
       sodipodi:open="true" />
    <path
       style="opacity:1;fill:none;fill-opacity:1;stroke:none;stroke-width:4;stroke-linecap:square;stroke-linejoin:miter;stroke-miterlimit:4;stroke-dasharray:none;stroke-dashoffset:11.33858299;stroke-opacity:1"
       id="path7526-6-0-0-6-4"
       sodipodi:type="arc"
       sodipodi:cx="-3.7802536"
       sodipodi:cy="155.00296"
       sodipodi:rx="117.475"
       sodipodi:ry="117.475"
       sodipodi:start="3.3172502"
       sodipodi:end="4.725548"
       d="M -119.44753,134.47355 A 117.475,117.475 0 0 1 -2.2344425,37.538133"
       sodipodi:open="true" />
    <path
       style="font-style:normal;font-variant:normal;font-weight:bold;font-stretch:normal;font-size:20.72737312px;line-height:1.25;font-family:Sawasdee;-inkscape-font-specification:'Sawasdee, Bold';font-variant-ligatures:normal;font-variant-caps:normal;font-variant-numeric:normal;font-feature-settings:normal;text-align:start;letter-spacing:0px;word-spacing:0px;writing-mode:lr-tb;text-anchor:start;fill:#5e3843;fill-opacity:1;stroke:none;stroke-width:0.59228915"
       d="m -13.42809,27.951905 c -0.36041,0.0447 -0.66596,0.23166 -0.78946,0.48108 -2.89077,5.84848 -5.26811,11.78021 -7.15794,17.74797 -0.15464,0.48681 0.32897,0.91074 0.90329,0.80904 0.73169,-0.12882 1.46466,-0.24939 2.19876,-0.36159 0.32157,-0.0492 0.58848,-0.2543 0.67727,-0.52218 0.51882,-1.57558 1.07118,-3.14824 1.65754,-4.71719 2.44525,-0.30118 4.90231,-0.51463 7.3671,-0.63698 0.8657,1.4491 1.69753,2.91108 2.49475,4.38529 0.13469,0.24958 0.43312,0.40742 0.75795,0.40239 0.7472,-0.0109 1.4948,-0.0127 2.24265,-0.005 0.58339,0.006 0.98871,-0.49442 0.75266,-0.95315 -2.88674,-5.62048 -6.28522,-11.06727 -10.15389,-16.30602 -0.17999,-0.2435 -0.5579,-0.37271 -0.95068,-0.32334 z m -97.11393,59.85794 c -0.9426,1.4614 -1.62241,3.0205 -2.023,4.63049 9e-5,10e-4 2e-4,0.002 5.3e-4,0.004 -0.39251,1.5901 -0.50441,3.09814 -0.342,4.48779 1.9e-4,0.001 5.2e-4,0.002 5.2e-4,0.004 0.168,1.38234 0.6077,2.62505 1.2904,3.713615 0.69001,1.1002 1.60191,1.92519 2.6958,2.48338 1.0941,0.55832 2.2938,0.81122 3.5712,0.78051 5.3e-4,2.7e-4 0,8e-4 0,0.001 1.2589,-0.034 2.492,-0.30656 3.6844,-0.80667 0,-5.3e-4 0,-7.9e-4 0,-0.001 1.1949,-0.50765 2.3403,-1.23467 3.4389,-2.16267 0,-2.6e-4 0,-7.9e-4 0,-10e-4 1.11291,-0.944035 2.07121,-2.042835 2.88361,-3.294445 0.80749,-1.24398 1.415,-2.56129 1.81379,-3.95245 0.4002,-1.38564 0.5944,-2.73029 0.56201,-4.02732 -0.027,-1.30441 -0.28681,-2.54516 -0.78271,-3.70376 v -0.001 c -0.5001,-1.17969 -1.22779,-2.17084 -2.1914,-2.93843 -0.9627,-0.7668 -2.0931,-1.25762 -3.3809,-1.43328 0,-1.4e-4 0,-2.7e-4 -0.01,-5.3e-4 -1.27029,-0.18082 -2.58649,-0.0694 -3.92049,0.35478 -1.32851,0.41629 -2.65361,1.13461 -3.93931,2.14655 -1.29089,1.01232 -2.42499,2.26426 -3.3625,3.71781 -1e-4,-3e-5 -1e-4,-6e-5 -1e-4,-9e-5 z m 11.0998,-14.79327 c -0.3051,0.34232 -0.3896,0.79484 -0.2035,1.07434 3.19709,4.80349 6.54059,9.47354 10.024,14.00081 0.2662,0.34526 0.8194,0.2854 1.1447,-0.11677 0.42899,-0.52953 0.86279,-1.05542 1.3013,-1.57761 0.2484,-0.29581 0.2939,-0.69634 0.1068,-0.96219 -1.7545,-2.49746 -3.46591,-5.03556 -5.1332,-7.61274 3.5896,0.56558 7.12099,1.26961 10.58519,2.10515 0.57121,0.13705 1.17971,-0.47543 1.03951,-1.04658 -0.86121,-3.48799 -1.5888,-7.05031 -2.17721,-10.67644 2.58581,1.64929 5.13581,3.34173 7.64901,5.07608 0.2693,0.18535 0.6722,0.13409 0.9665,-0.12064 0.54079,-0.46925 1.08589,-0.93366 1.6351,-1.39314 0.3975,-0.33242 0.4493,-0.88628 0.1004,-1.14764 -4.5743,-3.43375 -9.2792,-6.7305 -14.1073,-9.88259 -0.55771,-0.36361 -1.5331,0.35325 -1.4353,1.05927 0.6184,4.48962 1.4418,8.8902 2.4605,13.18352 -4.2799,-0.97868 -8.6579,-1.76252 -13.1186,-2.33918 -0.27631,-0.0355 -0.6004,0.10961 -0.8378,0.37644 0,-3e-5 0,-6e-5 -1e-4,-9e-5 z m -28.4693,58.157025 c -0.10001,0.52395 0.1255,1.00054 0.49829,1.06641 l 1.6832,0.29638 c 0.37291,0.0654 0.74921,-0.29597 0.8452,-0.80313 0.2999,-1.5876 0.6335,-3.16556 0.99991,-4.7332 l 13.76479,3.17541 c 0.36761,0.0846 0.74501,-0.20136 0.84681,-0.63497 0.15549,-0.66295 0.31819,-1.32406 0.488,-1.98325 0.1109,-0.43126 -0.09,-0.86195 -0.4529,-0.96057 l -13.61,-3.6871 c 0.42169,-1.54339 0.8753,-3.07591 1.3599,-4.59685 0.1552,-0.48778 0,-0.97842 -0.3615,-1.09512 l -1.6138,-0.52615 c -0.35741,-0.11627 -0.7802,0.19357 -0.941,0.6967 -1.43721,4.49988 -2.61291,9.10061 -3.5069,13.78544 z m 4.2934,-16.16219 c -0.1708,0.49919 -0.016,0.99888 0.3406,1.11741 l 15.61619,5.1794 c 0.35681,0.11812 0.7592,-0.13114 0.9022,-0.55296 0.22261,-0.65762 0.45231,-1.31296 0.68891,-1.96592 0.1517,-0.41894 -0.01,-0.86594 -0.3583,-0.99742 l -6.2661,-2.33837 c 0.4225,-1.13307 0.8641,-2.25887 1.3242,-3.37705 2.8028,-0.66257 5.5998,-1.21139 8.3858,-1.65046 0.25489,-0.0404 0.4895,-0.22927 0.615,-0.49387 0.33979,-0.71625 0.688,-1.4289 1.0445,-2.13781 0.2773,-0.5518 -0.038,-1.16005 -0.58251,-1.09235 -2.78199,0.34869 -5.57769,0.80369 -8.3821,1.36889 0.047,-0.98559 -0.024,-1.94184 -0.34989,-2.79919 -0.44,-1.16342 -1.18081,-2.04107 -2.19401,-2.54289 -1.26569,-0.62685 -2.72539,-0.56462 -4.21839,0.24378 -1.50191,0.80668 -2.734,2.21664 -3.51101,4.05208 -1.1098,2.62174 -2.1297,5.28522 -3.05509,7.98673 z m 41.5698,-58.570335 c -0.40831,0.32916 -0.542,0.83422 -0.3032,1.12677 l 10.4634,12.80201 c 0.2391,0.29228 0.7188,0.29519 1.072,0.0107 1.9069,-1.53694 3.861,-3.01507 5.8577,-4.43076 1.07579,-0.76271 1.96873,-1.66874 2.6612,-2.70781 0.69168,-1.03787 1.1247,-2.13067 1.2592,-3.2433 0.14304,-1.12697 -0.0521,-2.17639 -0.6022,-3.07042 -0.54029,-0.87815 -1.37047,-1.51429 -2.4482,-1.84914 0,-1.2e-4 0,-2.4e-4 0,-2.7e-4 -0.7825,-0.25171 -1.6562,-0.28372 -2.5677,-0.20144 0.1231,-0.43077 0.3232,-0.86781 0.3341,-1.29032 5.3e-4,-10e-4 7.9e-4,-0.002 0,-0.003 0.015,-0.75696 -0.1677,-1.45302 -0.54631,-2.05141 -0.70489,-1.11412 -1.97129,-1.73378 -3.63519,-1.74469 0,-6e-5 0,-1.2e-4 0,-1.8e-4 -1.6595,-0.0215 -3.3804,0.55674 -4.95391,1.67286 -2.245,1.5925 -4.44129,3.25391 -6.58479,4.98085 z m 16.3139,-11.26931 c -0.4522,0.26544 -0.6585,0.74477 -0.46521,1.06863 l 8.47123,14.17345 c 0.19367,0.32365 0.66656,0.39626 1.05618,0.16663 3.50341,-2.06653 7.10886,-3.94632 10.79605,-5.62257 0.40987,-0.18651 0.62135,-0.61445 0.46887,-0.95841 l -0.68952,-1.55319 c -0.15285,-0.34381 -0.61901,-0.47053 -1.0424,-0.27853 -2.87816,1.30645 -5.70689,2.7331 -8.47729,4.27258 l -2.7145,-4.89539 c 2.66181,-1.47612 5.37614,-2.85316 8.13613,-4.12546 0.44052,-0.20325 0.67509,-0.64377 0.52025,-0.98674 l -0.7002,-1.54865 c -0.15523,-0.3428 -0.64829,-0.45526 -1.10226,-0.24644 -2.83036,1.30301 -5.61315,2.71308 -8.34152,4.22453 l -1.4876,-2.68278 c 3.06995,-1.69897 6.20786,-3.27286 9.40463,-4.71414 0.36181,-0.16387 0.60803,-0.4786 0.61062,-0.78355 0.22856,0.2035 0.62879,0.23226 0.99395,0.0734 1.46181,-0.63489 2.93547,-1.24213 4.42012,-1.82101 l 5.12641,13.11454 c 0.13707,0.3501 0.58877,0.49979 1.00803,0.33895 0.64061,-0.24601 1.28325,-0.48589 1.92784,-0.71954 0.42173,-0.15304 0.66523,-0.56201 0.54051,-0.91642 l -4.67885,-13.27219 c 1.4987,-0.52708 3.00758,-1.02535 4.5258,-1.49413 0.1086,-0.0333 0.21188,-0.0808 0.3047,-0.1403 0.10837,-0.003 0.21865,-0.0203 0.32558,-0.0524 1.52632,-0.46227 3.06194,-0.89474 4.60598,-1.29667 l 3.54504,13.60582 c 0.0948,0.36322 0.52405,0.56535 0.9572,0.45611 0.66195,-0.16719 1.32531,-0.32774 1.99,-0.48155 0.43486,-0.1008 0.72384,-0.47667 0.64225,-0.84307 l -3.06296,-13.72173 c 1.55249,-0.34672 3.11261,-0.66252 4.6795,-0.94671 0.50246,-0.0913 0.86097,-0.46193 0.79734,-0.83203 l -0.28835,-1.67122 c -0.0641,-0.37003 -0.5344,-0.59772 -1.05258,-0.50375 -4.6339,0.84177 -9.20757,1.95084 -13.70076,3.31047 -0.11155,0.0335 -0.21767,0.0816 -0.313,0.1418 -0.11083,0.003 -0.22373,0.0221 -0.33319,0.0556 -4.48447,1.38334 -8.88753,3.01632 -13.18892,4.8822 -0.37381,0.1629 -0.62805,0.48011 -0.6326,0.78612 -0.23066,-0.20282 -0.63835,-0.22767 -1.01104,-0.0596 -4.30299,1.93768 -8.50035,4.10915 -12.57146,6.49733 z m -42.23801,44.30025 c 0.82971,-1.28523 1.82361,-2.28301 2.99171,-3.02271 0,-2.6e-4 0,-7.9e-4 0,-10e-4 1.1789,-0.75059 2.3432,-1.1338 3.52739,-1.1757 1.1815,-0.0418 2.1873,0.27166 3.0694,0.92848 0.87661,0.65262 1.4586,1.51976 1.798,2.63012 0.33491,1.10992 0.38001,2.275 0.153,3.56115 -0.22629,1.26839 -0.70089,2.44414 -1.45409,3.60599 -0.56721,0.87486 -1.2236,1.62063 -1.9933,2.26719 -0.77291,0.64536 -1.546,1.12007 -2.3475,1.44059 -0.802,0.308635 -1.6217,0.465625 -2.4759,0.461825 v -0.001 c 0,-2e-5 0,0.002 0,0.001 -0.83951,-0.0124 -1.6031,-0.208025 -2.3149,-0.603135 -0.71931,-0.3993 -1.2944,-0.94977 -1.73331,-1.67491 v -0.001 c -0.4465,-0.74725 -0.7127,-1.56421 -0.80539,-2.46153 -0.093,-0.89912 -0.014,-1.87175 0.256,-2.93485 0.26609,-1.04866 0.7074,-2.05254 1.33229,-3.02059 0,2e-5 1e-4,4e-5 1e-4,5e-5 z m -11.63349,23.402415 c 0.5861,-1.56718 1.2052,-3.12066 1.8566,-4.65963 0.32219,-0.76152 0.7378,-1.24497 1.37779,-1.59867 0.64111,-0.35426 1.1801,-0.39208 1.75971,-0.13015 0.5646,0.25514 0.87709,0.67412 1.0459,1.37081 0.1671,0.68947 0.10809,1.27303 -0.1871,1.96964 -0.6376,1.50454 -1.24291,3.02312 -1.81491,4.5549 -1.34599,-0.5023 -2.692,-1.0046 -4.03799,-1.5069 z m 42.0908,-56.085635 c 1.23609,-0.94593 2.48899,-1.87001 3.7576,-2.77158 0.7143,-0.50758 1.342,-0.72267 2.0196,-0.72599 0,1.6e-4 0.01,2.7e-4 0.011,2.7e-4 0.702,-0.0127 1.07,0.15995 1.3217,0.53058 l 0.012,0.0177 c 0.24839,0.36599 0.2691,0.75811 0.018,1.3922 -0.2378,0.59939 -0.6498,1.09996 -1.3711,1.61276 -1.2353,0.87826 -2.4552,1.77841 -3.659,2.6998 -0.7033,-0.91861 -1.4066,-1.83721 -2.1099,-2.75581 z m 64.75125,-22.204 c 0.80499,1.05848 1.58911,2.1265 2.35194,3.20375 -1.36522,0.092 -2.72754,0.2106 -4.08634,0.35539 0.55586,-1.19002 1.13392,-2.37655 1.7344,-3.55914 z m -60.78655,27.38308 c 1.24749,-0.95504 2.5127,-1.88676 3.7946,-2.79439 0.9966,-0.70568 1.91839,-1.01472 2.8692,-1.00566 0.9645,0.009 1.5349,0.29494 1.9225,0.88179 0.389,0.58901 0.4244,1.22598 0.092,2.11894 -0.3278,0.88054 -0.9067,1.59708 -1.8616,2.27371 -1.22831,0.87046 -2.4408,1.76396 -3.6365,2.67974 z"
       id="path1791-4-0"
       inkscape:connector-curvature="0" />
  </g>
</svg>
